<svg width="409" height="280" viewBox="0 0 409 280" fill="none" xmlns="http://www.w3.org/2000/svg">
<path d="M404.073 279.919H4.1254C1.7209 279.919 0.117905 277.92 0.117905 275.922V38.4707H408.081V275.922C408.081 278.32 406.478 279.919 404.073 279.919Z" fill="white"/>
<path d="M408.081 38.4703V4.49163C408.081 2.09314 406.077 0.494141 404.073 0.494141H4.1254C1.7209 0.494141 0.117905 2.49289 0.117905 4.49163V38.4703H408.081Z" fill="#E8E8E8"/>
<path d="M34.1816 25.6783C37.2802 25.6783 39.7921 23.1727 39.7921 20.0818C39.7921 16.991 37.2802 14.4854 34.1816 14.4854C31.083 14.4854 28.5711 16.991 28.5711 20.0818C28.5711 23.1727 31.083 25.6783 34.1816 25.6783Z" fill="#F3746B"/>
<path d="M55.4026 25.6783C58.5012 25.6783 61.0131 23.1727 61.0131 20.0818C61.0131 16.991 58.5012 14.4854 55.4026 14.4854C52.304 14.4854 49.7921 16.991 49.7921 20.0818C49.7921 23.1727 52.304 25.6783 55.4026 25.6783Z" fill="#FFCC0D"/>
<path d="M76.6235 25.6783C79.7221 25.6783 82.234 23.1727 82.234 20.0818C82.234 16.991 79.7221 14.4854 76.6235 14.4854C73.525 14.4854 71.0131 16.991 71.0131 20.0818C71.0131 23.1727 73.525 25.6783 76.6235 25.6783Z" fill="#34BA08"/>
<g filter="url(#filter0_d)">
<path d="M263.201 205H148V230.309H263.201V205Z" fill="#E2E2E2"/>
<path d="M148.5 229.809V205.5H262.701V229.809H148.5Z" stroke="#D3D3D3" stroke-opacity="0.96"/>
</g>
<path d="M144.358 77.8428H29.1576V91.3408H144.358V77.8428Z" fill="#ABABAB"/>
<path d="M367.984 120.024H29.1576V126.773H367.984V120.024Z" fill="#C6C6C6"/>
<path d="M344.266 135.209H29.1576V141.958H344.266V135.209Z" fill="#C6C6C6"/>
<path d="M223.983 152.082H29.1576V158.831H223.983V152.082Z" fill="#C6C6C6"/>
<path d="M174.853 168.954H29.1576V175.703H174.853V168.954Z" fill="#C6C6C6"/>
<path d="M271.822 254.511L259.605 242.49L269.921 235.933C270.193 235.66 269.921 235.114 269.65 235.114L233.543 222C233.271 222 233 222.273 233 222.546L246.031 258.883C246.031 259.156 246.574 259.429 246.845 259.156L253.361 248.774L265.306 260.795C265.578 261.068 266.121 261.068 266.392 260.795L271.55 255.604C272.093 255.331 272.093 254.785 271.822 254.511Z" fill="#B1B1B1"/>
<defs>
<filter id="filter0_d" x="135" y="193" width="141.201" height="51.3088" filterUnits="userSpaceOnUse" color-interpolation-filters="sRGB">
<feFlood flood-opacity="0" result="BackgroundImageFix"/>
<feColorMatrix in="SourceAlpha" type="matrix" values="0 0 0 0 0 0 0 0 0 0 0 0 0 0 0 0 0 0 127 0"/>
<feOffset dy="1"/>
<feGaussianBlur stdDeviation="6.5"/>
<feColorMatrix type="matrix" values="0 0 0 0 0 0 0 0 0 0 0 0 0 0 0 0 0 0 0.08 0"/>
<feBlend mode="normal" in2="BackgroundImageFix" result="effect1_dropShadow"/>
<feBlend mode="normal" in="SourceGraphic" in2="effect1_dropShadow" result="shape"/>
</filter>
</defs>
</svg>
