<svg width="42" height="42" viewBox="0 0 42 42" fill="none" xmlns="http://www.w3.org/2000/svg">
<g opacity="0.5" clip-path="url(#clip0)">
<path d="M41.9856 14.7515C41.9391 14.54 41.7847 14.3685 41.5793 14.3001L27.5224 9.61443C27.2002 9.50714 26.8516 9.68121 26.7442 10.0035C26.6367 10.3259 26.811 10.6744 27.1333 10.7817L38.8753 14.6957L23.868 17.3057L4.24273 3.15153L24.5057 9.90589C24.828 10.0131 25.1765 9.8392 25.2839 9.51682C25.3914 9.19444 25.2172 8.84597 24.8948 8.73859L0.809812 0.710206C0.801609 0.707499 0.795784 0.706924 0.78873 0.70512C0.614168 0.653768 0.420656 0.679362 0.263239 0.789366C0.021493 0.958022 -0.0666084 1.27442 0.053075 1.54372L16.3609 38.2362C16.442 38.4189 16.6068 38.5507 16.8028 38.5898C16.8428 38.5977 16.8831 38.6017 16.923 38.6017C17.079 38.6017 17.231 38.5422 17.3465 38.4328L24.1513 31.9782L30.1843 35.7886C30.1871 35.7904 30.1902 35.7908 30.1931 35.792C30.2878 35.8499 30.3974 35.8837 30.5124 35.8837C30.5355 35.8837 30.5586 35.8823 30.582 35.8797C30.8657 35.8476 31.09 35.6246 31.1237 35.3411L32.4563 24.1317L41.8063 15.3318C41.9641 15.1834 42.0322 14.9629 41.9856 14.7515ZM39.4697 15.8412L31.82 23.0409L25.2631 18.3119L39.4697 15.8412ZM26.9064 27.6691L18.0087 36.1086L21.3453 22.2716L26.9064 27.6691ZM27.5337 28.7699L29.3321 33.795L25.0723 31.1045L27.5337 28.7699ZM30.2107 32.5984L28.3741 27.4668C28.3729 27.4633 28.371 27.4602 28.3697 27.4568C28.338 27.3731 28.2889 27.2962 28.2234 27.2326L19.1187 18.3957C18.8749 18.1591 18.4854 18.1649 18.2487 18.4087C18.0121 18.6525 18.0179 19.042 18.2617 19.2786L20.3197 21.2761L16.7496 36.0812L2.46946 3.95084L16.495 17.5638C16.7387 17.8005 17.1283 17.7947 17.3649 17.5509C17.6016 17.307 17.5958 16.9175 17.352 16.6809L7.09553 6.7262L31.2182 24.1241L30.2107 32.5984Z" fill="#898989"/>
<path d="M40.0258 31.807C39.8684 31.807 39.7109 31.7469 39.5908 31.6268L34.1548 26.1909C33.9145 25.9505 33.9145 25.561 34.1548 25.3208C34.3951 25.0806 34.7846 25.0806 35.0248 25.3208L40.4608 30.7567C40.7011 30.9971 40.7011 31.3866 40.4608 31.6268C40.3407 31.7469 40.1832 31.807 40.0258 31.807Z" fill="#898989"/>
<path d="M30.5131 41.3197C30.3557 41.3197 30.1982 41.2596 30.0781 41.1395L24.6421 35.7036C24.4018 35.4632 24.4018 35.0737 24.6421 34.8335C24.8824 34.5933 25.272 34.5933 25.5121 34.8335L30.9481 40.2694C31.1884 40.5098 31.1884 40.8993 30.9481 41.1395C30.8279 41.2595 30.6705 41.3197 30.5131 41.3197Z" fill="#898989"/>
<path d="M40.0258 41.3197C39.8684 41.3197 39.7109 41.2596 39.5908 41.1395L34.1548 35.7036C33.9145 35.4632 33.9145 35.0737 34.1548 34.8335C34.3951 34.5933 34.7846 34.5933 35.0248 34.8335L40.4608 40.2694C40.7011 40.5098 40.7011 40.8993 40.4608 41.1395C40.3407 41.2595 40.1832 41.3197 40.0258 41.3197Z" fill="#898989"/>
</g>
<defs>
<clipPath id="clip0">
<rect width="42" height="42" fill="white"/>
</clipPath>
</defs>
</svg>
