<svg width="114" height="123" viewBox="0 0 114 123" fill="none" xmlns="http://www.w3.org/2000/svg">
<g clip-path="url(#clip0_3_91)">
<path d="M46.5 12.6C58.3 12.6 76.8 12.7 88.6 12.7C89.9 12.7 91.2 12.8 92.5 13.1C93.7 13.3 94.9 13.7 96.1 14.2C97.2 14.7 98.3 15.3 99.4 16C100.4 16.7 101.4 17.5 102.3 18.4C103.2 19.3 104 20.3 104.7 21.3C105.4 22.3 106 23.4 106.5 24.6C107 25.7 107.3 26.9 107.6 28.2C107.8 29.5 108 30.7 108 32.1V71.2C108 72.5 107.9 73.8 107.6 75.1C107.4 76.4 107 77.5 106.5 78.7C106 79.8 105.4 80.9 104.7 82C104 83 103.2 84 102.3 84.9C101.3 85.8 100.3 86.7 99.3 87.3C98.3 88 97.2 88.6 96.1 89.1C95 89.6 93.8 89.9 92.6 90.2C91.4 90.4 90.1 90.6 88.7 90.6H73.8C73.3 90.6 72.9 90.7 72.5 90.9C72.1 91.1 71.8 91.4 71.5 91.7C70.3 93.2 69.1 94.7 67.8 96.2C66.5 97.6 65.2 99 63.7 100.3C62.3 101.6 60.8 102.8 59.3 104C57.8 105.2 56.2 106.3 54.6 107.4C53.1 108.4 51.4 109.4 49.7 110.3C48 111.2 46.3 112 44.6 112.8C44.4 112.9 44.2 112.9 44 112.8C43.7 112.6 43.6 112.2 43.7 111.9C44 111.3 44.3 110.8 44.6 110.2C44.9 109.7 45.2 109.1 45.4 108.5C45.9 107.4 46.4 106.3 46.8 105.1C47.3 103.9 47.7 102.7 48.1 101.5C48.5 100.4 48.9 99.2 49.2 98C49.6 96.8 49.9 95.6 50.2 94.4C50.3 94 50.4 93.7 50.4 93.3C50.4 92.5 50.1 91.8 49.5 91.2C49 90.7 48.2 90.3 47.4 90.3H30.4C29.1 90.3 27.8 90.2 26.5 89.9C25.3 89.7 24.1 89.3 23 88.9C21.9 88.5 20.8 87.9 19.8 87.2C18.7 86.5 17.7 85.6 16.7 84.7C15.8 83.8 15 82.8 14.3 81.8C13.6 80.8 13 79.7 12.5 78.5C12 77.4 11.7 76.2 11.4 74.9C11.2 73.6 11 72.4 11 71V46.3C11 42.3 5.8 42.3 5 45.1V71C5 72.7 5.2 74.4 5.5 76C5.8 77.6 6.3 79.2 6.9 80.7C7.5 82.2 8.3 83.6 9.2 85C10.1 86.4 11.2 87.7 12.4 88.9C13.6 90.1 14.9 91.2 16.3 92.1C17.6 93 19.1 93.8 20.6 94.4C22.1 95 23.7 95.5 25.3 95.8C26.9 96.1 28.6 96.3 30.3 96.3H42.6C42.7 96.3 42.8 96.3 42.8 96.3C43.2 96.4 43.4 96.8 43.2 97.2C43 98 42.7 98.7 42.5 99.5C42.1 100.6 41.7 101.7 41.3 102.8C40.9 103.8 40.4 104.9 40 105.9C40 106 40 106 40 106.1C39.6 107.1 39.1 108.1 38.5 109.1C37.9 110.1 37.3 111 36.5 112C35.8 112.9 34.9 113.9 34 114.9C33.1 115.9 32.1 116.8 31 117.8C30.4 118.4 30.1 119.1 30 119.9C30 120.7 30.2 121.4 30.8 122C31.2 122.4 31.7 122.7 32.2 122.9C32.7 123.1 33.3 123.1 33.8 122.9C36 122.3 38.2 121.6 40.4 120.9C42.5 120.2 44.6 119.4 46.6 118.5C48.6 117.6 50.6 116.7 52.5 115.7C54.4 114.7 56.2 113.6 58 112.4C59.8 111.3 61.5 110 63.1 108.7C64.8 107.4 66.3 106 67.9 104.6C69.2 103.4 70.4 102.1 71.6 100.8C72.8 99.5 74 98.1 75.1 96.7C75.2 96.5 75.4 96.4 75.7 96.4H88.7C90.4 96.4 92.1 96.2 93.7 95.9C95.3 95.6 96.9 95.1 98.4 94.5C99.9 93.9 101.3 93.1 102.7 92.2C104.1 91.3 105.4 90.2 106.6 89C107.8 87.8 108.9 86.5 109.8 85.1C110.7 83.7 111.5 82.3 112.1 80.8C112.7 79.3 113.2 77.7 113.5 76.1C113.8 74.5 114 72.8 114 71.1V31.9C114 30.2 113.8 28.5 113.5 26.9C113.2 25.3 112.7 23.7 112.1 22.2C111.5 20.7 110.7 19.3 109.8 17.9C108.9 16.5 107.8 15.2 106.6 14C105.4 12.8 104.1 11.7 102.7 10.8C101.4 9.9 99.9 9.1 98.4 8.5C96.9 7.9 95.3 7.4 93.7 7.1C92.1 6.8 90.4 6.6 88.7 6.6C76.4 6.6 57.5 6.5 45.2 6.5C42.2 7.4 42 12.6 46.5 12.6ZM24.3 39.2C26.2 39.8 28.1 40.4 30 41C31.9 41.6 33.8 42.3 35.7 42.9C40.2 44.3 42.7 45.2 43.2 45.3C43.7 45.4 43.4 43.4 42.3 39L38.7 25.3L38.4 25L24.3 39.2ZM33.2 19.7L14.9 0.500002C14.3 2.20537e-06 13.7 -0.199998 13 0.200002L0.4 12.4C-0.1 13 -0.2 13.7 0.5 14.4L19.1 33.9L33.2 19.7ZM42.1 72.9C40.5 72.9 39.3 71.7 39.2 70.1C39.2 68.5 40.4 67.3 42 67.2L67 66.8L72.7 66.4C74.3 66.3 75.6 67.5 75.7 69C75.8 70.6 74.6 71.9 73.1 72L67.4 72.4C67.4 72.4 44.6 72.8 42.1 72.9ZM51 55.1C49.4 55.1 48.2 53.8 48.2 52.3C48.2 50.7 49.5 49.5 51 49.5H86.6C88.2 49.5 89.4 50.8 89.4 52.3C89.4 53.9 88.1 55.1 86.6 55.1H51ZM63.6 38.2C62 38.2 60.8 36.9 60.8 35.4C60.8 33.9 62.1 32.6 63.6 32.6H86.6C88.2 32.6 89.4 33.9 89.4 35.4C89.4 37 88.1 38.2 86.6 38.2H63.6Z" fill="black"/>
</g>
<defs>
<clipPath id="clip0_3_91">
<rect width="113.8" height="122.9" fill="white"/>
</clipPath>
</defs>
</svg>
