<svg width="123" height="85" viewBox="0 0 123 85" fill="none" xmlns="http://www.w3.org/2000/svg">
<g clip-path="url(#clip0_4_94)">
<path d="M34.11 3H117.11C118.645 3.00265 120.116 3.61351 121.201 4.69877C122.286 5.78404 122.897 7.25521 122.9 8.79V70.27C122.901 71.4293 122.553 72.562 121.9 73.52C121.778 73.8296 121.59 74.1093 121.35 74.34C121.19 74.4931 121.008 74.6212 120.81 74.72C119.773 75.5893 118.463 76.067 117.11 76.07H68C68.3551 74.6149 68.4966 73.1159 68.42 71.62H115.64L84.8 39.23L74.62 47.91C74.2212 48.2418 73.7188 48.4235 73.2 48.4235C72.6812 48.4235 72.1788 48.2418 71.78 47.91L61.1 39.23L51.41 48.94C50.0755 48.036 48.5776 47.4008 47 47.07L57.64 36.41L37.91 20.32C37.8267 19.1561 37.5983 18.0072 37.23 16.9L36.44 13.41L73.15 43.34L115.26 7.46H35.11L34.11 3ZM17.46 31C18.3952 36.1512 19.9847 41.1617 22.19 45.91C24.7925 51.334 28.3183 56.2641 32.61 60.48C32.7598 60.6366 32.9424 60.7582 33.1446 60.836C33.3469 60.9138 33.5639 60.9459 33.78 60.93C34.4848 60.8427 35.1648 60.6148 35.78 60.26C36.5108 59.8562 37.2126 59.4017 37.88 58.9C41.02 56.72 44.88 54.01 48.17 57.05C48.25 57.12 48.29 57.19 48.37 57.25L58.84 68.78C58.8764 68.8209 58.9099 68.8643 58.94 68.91C59.5431 69.7293 59.9314 70.6865 60.0694 71.6944C60.2074 72.7024 60.0907 73.7288 59.73 74.68C58.9121 76.8957 57.5586 78.8746 55.79 80.44C53.5848 82.4179 50.8001 83.6314 47.85 83.9C45.0848 84.1531 42.2979 84.0184 39.57 83.5C35.4888 82.8059 31.6203 81.188 28.26 78.77C24.589 76.0549 21.276 72.8864 18.4 69.34L18.16 69.05C16.64 67.25 15 65.32 13.47 63.17C7.41876 54.4953 3.17767 44.6901 1 34.34C-0.719998 25.59 -0.369998 16.85 3.33 9.62C5.33 5.62 8.39 2.42 12.33 0.930003C15.77 -0.389997 19.84 -0.409997 24.46 1.56C24.7168 1.66704 24.9427 1.83654 25.1174 2.05308C25.292 2.26963 25.4098 2.52638 25.46 2.8L29.19 19.38C29.5363 20.1863 29.6431 21.0752 29.4977 21.9406C29.3522 22.806 28.9608 23.6112 28.37 24.26C27.189 25.4616 25.7077 26.3249 24.08 26.76C23.52 27 22.87 27.21 22.18 27.43C19.91 28.17 17.32 29.04 17.45 31.08L17.46 31ZM88.18 36.33L118.44 68.06V10.58L88.18 36.36V36.33Z" fill="white"/>
</g>
<defs>
<clipPath id="clip0_4_94">
<rect width="122.88" height="84.04" fill="white"/>
</clipPath>
</defs>
</svg>
