<svg width="40" height="40" viewBox="0 0 40 40" fill="none" xmlns="http://www.w3.org/2000/svg">
<path d="M32 0H8C3.58172 0 0 3.58172 0 8V32C0 36.4183 3.58172 40 8 40H32C36.4183 40 40 36.4183 40 32V8C40 3.58172 36.4183 0 32 0Z" fill="#3DBEF8" fill-opacity="0.08"/>
<path d="M20 6.66699C17.363 6.66719 14.7853 7.44938 12.5929 8.91455C10.4004 10.3797 8.69162 12.4621 7.68263 14.8984C6.67364 17.3347 6.40975 20.0155 6.92432 22.6018C7.43889 25.1881 8.70881 27.5637 10.5735 29.4282C12.4382 31.2928 14.8139 32.5625 17.4002 33.0769C19.9865 33.5913 22.6673 33.327 25.1035 32.3179C27.5398 31.3087 29.622 29.5998 31.0871 27.4072C32.5521 25.2146 33.334 22.637 33.334 20C33.3327 16.4641 31.9274 13.0734 29.427 10.5732C26.9267 8.07308 23.5359 6.66805 20 6.66699V6.66699ZM24.813 15.1201C25.3219 15.1201 25.8193 15.271 26.2425 15.5537C26.6656 15.8364 26.9954 16.2381 27.1901 16.7083C27.3849 17.1784 27.4358 17.696 27.3366 18.1951C27.2373 18.6942 26.9922 19.1526 26.6324 19.5125C26.2725 19.8723 25.8141 20.1173 25.315 20.2166C24.8159 20.3158 24.2985 20.2648 23.8284 20.0701C23.3582 19.8753 22.9564 19.5457 22.6736 19.1226C22.3909 18.6994 22.24 18.202 22.24 17.6931C22.2391 17.355 22.305 17.0199 22.434 16.7073C22.563 16.3947 22.7525 16.1107 22.9916 15.8716C23.2307 15.6325 23.5147 15.4429 23.8273 15.314C24.1399 15.185 24.4749 15.1192 24.813 15.1201V15.1201ZM16.813 13.0129C17.4355 13.0127 18.044 13.1973 18.5616 13.543C19.0793 13.8886 19.4828 14.3801 19.7212 14.9551C19.9595 15.5301 20.022 16.1629 19.9007 16.7734C19.7793 17.384 19.4797 17.9448 19.0396 18.385C18.5995 18.8252 18.0388 19.1248 17.4283 19.2463C16.8178 19.3678 16.185 19.3058 15.6099 19.0676C15.0348 18.8295 14.5433 18.426 14.1974 17.9084C13.8516 17.3909 13.667 16.7824 13.667 16.1599C13.6686 15.3259 14.0007 14.5264 14.5905 13.9368C15.1804 13.3471 15.9799 13.0152 16.814 13.0139L16.813 13.0129ZM16.813 25.186V30.186C15.2368 29.6894 13.7975 28.8336 12.6083 27.686C11.4191 26.5385 10.5125 25.1305 9.96001 23.573C11.36 22.08 14.853 21.3201 16.813 21.3201C17.6647 21.338 18.5127 21.436 19.346 21.613C17.16 22.774 16.814 24.307 16.814 25.187L16.813 25.186ZM20 30.667C19.6483 30.6696 19.2967 30.6519 18.947 30.614V25.187C18.947 23.294 22.867 22.3469 24.814 22.3469C26.6326 22.3548 28.4103 22.887 29.934 23.8799C29.1504 25.8773 27.7839 27.5928 26.0122 28.8032C24.2405 30.0136 22.1457 30.6631 20 30.667V30.667Z" fill="#3DBEF8"/>
</svg>
