<svg width="40" height="40" viewBox="0 0 40 40" fill="none" xmlns="http://www.w3.org/2000/svg">
<path d="M32 0H8C3.58172 0 0 3.58172 0 8V32C0 36.4183 3.58172 40 8 40H32C36.4183 40 40 36.4183 40 32V8C40 3.58172 36.4183 0 32 0Z" fill="#E7F1F6"/>
<path d="M18.92 5.81299L9.58701 9.95996C9.116 10.1701 8.71567 10.5117 8.43414 10.9438C8.15262 11.376 8.00187 11.8803 8 12.396V18.6631C8 26.0631 13.12 32.9831 20 34.6631C26.88 32.9831 32 26.0631 32 18.6631V12.396C31.9989 11.8796 31.8485 11.3746 31.5669 10.9417C31.2854 10.5087 30.8846 10.1664 30.413 9.95605L21.08 5.81396C20.7401 5.66235 20.3722 5.58398 20 5.58398C19.6278 5.58398 19.2599 5.66235 18.92 5.81396V5.81299ZM16.387 25.72L12.933 22.2671C12.6963 22.0153 12.567 21.681 12.5723 21.3354C12.5777 20.9899 12.7173 20.6601 12.9617 20.4158C13.2061 20.1714 13.536 20.0317 13.8815 20.0264C14.2271 20.021 14.5612 20.1503 14.813 20.387L17.333 22.894L25.173 15.054C25.4248 14.8173 25.7589 14.688 26.1045 14.6934C26.45 14.6987 26.7799 14.8384 27.0243 15.0828C27.2687 15.3271 27.4083 15.6569 27.4137 16.0024C27.419 16.348 27.2897 16.6822 27.053 16.9341L18.266 25.7209C18.1427 25.8446 17.9961 25.9426 17.8348 26.0095C17.6735 26.0764 17.5006 26.1108 17.326 26.1108C17.1514 26.1108 16.9785 26.0764 16.8172 26.0095C16.6559 25.9426 16.5094 25.8446 16.386 25.7209L16.387 25.72Z" fill="#00D135"/>
</svg>
