<svg width="40" height="40" viewBox="0 0 40 40" fill="none" xmlns="http://www.w3.org/2000/svg">
<path d="M32 0H8C3.58172 0 0 3.58172 0 8V32C0 36.4183 3.58172 40 8 40H32C36.4183 40 40 36.4183 40 32V8C40 3.58172 36.4183 0 32 0Z" fill="#EAF2EC"/>
<g clip-path="url(#clip0_1_38)">
<path d="M20.5 4.99998C23.8559 4.99902 27.1083 6.16179 29.703 8.29013C32.2977 10.4185 34.0741 13.3807 34.7295 16.672C35.3849 19.9633 34.8788 23.3801 33.2973 26.34C31.7158 29.3 29.1569 31.6199 26.0565 32.9046C22.9562 34.1893 19.5064 34.3591 16.2948 33.3852C13.0833 32.4113 10.3089 30.354 8.44427 27.5637C6.57967 24.7734 5.74031 21.4229 6.06921 18.0832C6.39811 14.7434 7.87493 11.621 10.248 9.24803C11.5924 7.89911 13.1904 6.82935 14.9498 6.1003C16.7092 5.37125 18.5955 4.99731 20.5 4.99998V4.99998Z" fill="#FECB00"/>
<path fill-rule="evenodd" clip-rule="evenodd" d="M20.5 7.06266C22.1334 7.06235 23.7508 7.38384 25.2599 8.00877C26.769 8.63369 28.1402 9.54981 29.2952 10.7048C30.4502 11.8598 31.3663 13.231 31.9912 14.7401C32.6162 16.2492 32.9377 17.8666 32.9373 19.5C32.9373 19.5732 32.9373 19.644 32.9373 19.7171C32.8948 17.362 32.1603 15.0714 30.8252 13.1307C29.4901 11.1901 27.6136 9.68515 25.4293 8.80341C23.245 7.92167 20.8496 7.70211 18.5414 8.17208C16.2332 8.64204 14.1143 9.78076 12.4487 11.4464C10.7831 13.112 9.6444 15.2309 9.17444 17.539C8.70447 19.8472 8.92404 22.2426 9.80578 24.4269C10.6875 26.6112 12.1925 28.4878 14.1331 29.8228C16.0738 31.1579 18.3643 31.8924 20.7195 31.935H20.5024C17.2038 31.935 14.0403 30.6246 11.7078 28.2922C9.37538 25.9597 8.06503 22.7962 8.06503 19.4976C8.06503 16.1991 9.37538 13.0356 11.7078 10.7031C14.0403 8.37066 17.2038 7.0603 20.5024 7.0603L20.5 7.06266Z" fill="#D08B00"/>
<path fill-rule="evenodd" clip-rule="evenodd" d="M20.9342 7.9288C23.3087 7.9288 25.6298 8.63291 27.6041 9.95209C29.5784 11.2713 31.1172 13.1463 32.0258 15.34C32.9345 17.5337 33.1723 19.9476 32.709 22.2764C32.2458 24.6052 31.1024 26.7444 29.4234 28.4234C27.7444 30.1024 25.6052 31.2458 23.2764 31.709C20.9476 32.1723 18.5337 31.9345 16.34 31.0258C14.1462 30.1172 12.2713 28.5784 10.9521 26.6041C9.6329 24.6298 8.92879 22.3087 8.92879 19.9343C8.92879 16.7502 10.1937 13.6966 12.4451 11.4451C14.6966 9.19366 17.7502 7.9288 20.9342 7.9288V7.9288Z" fill="#DB9300"/>
<path d="M25.7841 16.1063L22.4588 16.642C22.3509 16.3258 22.1992 16.0263 22.0081 15.7523C21.8202 15.5435 21.5933 15.3735 21.3402 15.2519V17.8834C23.1464 18.3758 24.3531 18.8943 24.9605 19.4386C25.3509 19.789 25.6608 20.2198 25.869 20.7013C26.0772 21.1828 26.1786 21.7037 26.1664 22.2282C26.1743 22.8603 26.026 23.4845 25.7345 24.0454C25.2074 25.079 24.2982 25.8663 23.1999 26.2402C22.5965 26.4242 21.9708 26.5243 21.3402 26.5376V28.251H20.0492V26.5376C19.3252 26.49 18.6108 26.3456 17.9252 26.1081C17.4008 25.9153 16.9197 25.621 16.5092 25.2419C16.1367 24.9064 15.8273 24.5067 15.5959 24.0619C15.3646 23.573 15.2056 23.0531 15.1239 22.5185L18.7229 22.0913C18.7799 22.5471 18.9275 22.9868 19.1571 23.3846C19.3913 23.6937 19.7009 23.9374 20.0563 24.0926V20.8617C19.1795 20.64 18.3229 20.3447 17.4957 19.9791C16.9614 19.7022 16.5102 19.2885 16.1882 18.7802C15.8063 18.1824 15.6138 17.4832 15.636 16.7742C15.6232 16.2707 15.7153 15.7701 15.9062 15.3042C16.0972 14.8382 16.3829 14.417 16.7452 14.0672C17.4886 13.3403 18.5907 12.9344 20.0492 12.8589V11.9644H21.3402V12.8589C22.6744 12.9423 23.6971 13.2632 24.4082 13.8218C25.1244 14.3957 25.6137 15.2053 25.7888 16.1063H25.7841ZM20.0492 15.2071C19.7442 15.2863 19.4678 15.4499 19.2515 15.6791C19.0968 15.8652 19.0132 16.1003 19.0155 16.3423C19.0122 16.5938 19.0955 16.8388 19.2515 17.0361C19.464 17.2738 19.7399 17.4458 20.0469 17.5317V15.2071H20.0492ZM21.3449 24.1752C21.7648 24.104 22.1523 23.9045 22.4541 23.6041C22.682 23.3585 22.8078 23.0353 22.8057 22.7002C22.8052 22.4144 22.7041 22.1378 22.5202 21.919C22.3219 21.683 21.9325 21.447 21.3567 21.2511V24.1705L21.3449 24.1752Z" fill="#B17600"/>
<path d="M25.1611 15.6201L21.8358 16.144C21.7278 15.8345 21.576 15.542 21.385 15.2755C21.1974 15.071 20.9723 14.9043 20.7218 14.7847V17.3618C22.528 17.8448 23.7348 18.3538 24.3421 18.8887C24.7312 19.2292 25.0406 19.6513 25.2482 20.1248C25.4558 20.5984 25.5566 21.1118 25.5434 21.6287C25.5513 22.2482 25.4045 22.8598 25.1162 23.4082C24.8425 23.9299 24.4669 24.3913 24.0117 24.7652C23.5871 25.115 23.1014 25.383 22.5792 25.5558C21.9771 25.7335 21.3541 25.8303 20.7266 25.8437V27.5241H19.4285V25.8437C18.705 25.7988 17.9907 25.6575 17.3045 25.4237C16.7819 25.2349 16.301 24.9464 15.8885 24.5741C15.5147 24.2434 15.203 23.8485 14.9681 23.4082C14.7384 22.9294 14.5794 22.4199 14.4961 21.8954L18.0928 21.4777C18.1497 21.9257 18.2983 22.3571 18.5294 22.745C18.7646 23.0481 19.0733 23.2861 19.4262 23.4365V20.2812C18.5472 20.0643 17.6876 19.7754 16.8561 19.4174C16.2805 19.1235 15.7999 18.6724 15.4703 18.1164C15.1408 17.5604 14.9756 16.9223 14.9941 16.2762C14.9831 15.7805 15.0763 15.288 15.2678 14.8306C15.4593 14.3732 15.7447 13.9612 16.1056 13.6212C16.8483 12.9084 17.9496 12.5151 19.4097 12.4412V11.5609H20.7077V12.4364C22.0419 12.5183 23.0646 12.8329 23.7757 13.3804C24.4903 13.9374 24.9818 14.732 25.1611 15.6201V15.6201ZM19.4238 14.7375C19.1193 14.8177 18.8431 14.9812 18.6261 15.2095C18.4724 15.3916 18.3887 15.6225 18.3901 15.8608C18.3873 16.1072 18.4708 16.3469 18.6261 16.5382C18.839 16.7727 19.1139 16.9421 19.4191 17.0267V14.7375H19.4238ZM20.7218 23.5238C21.1393 23.4551 21.5257 23.2598 21.8287 22.9645C22.054 22.7303 22.1807 22.4186 22.1827 22.0937C22.1794 21.8077 22.0739 21.5323 21.8853 21.3172C21.5575 21.0065 21.1577 20.7819 20.7218 20.6635V23.5238Z" fill="#FECB00"/>
</g>
<defs>
<clipPath id="clip0_1_38">
<rect width="29" height="29" fill="white" transform="translate(6 5)"/>
</clipPath>
</defs>
</svg>
