<svg width="40" height="40" viewBox="0 0 40 40" fill="none" xmlns="http://www.w3.org/2000/svg">
<path d="M32 0H8C3.58172 0 0 3.58172 0 8V32C0 36.4183 3.58172 40 8 40H32C36.4183 40 40 36.4183 40 32V8C40 3.58172 36.4183 0 32 0Z" fill="#8A62D6" fill-opacity="0.08"/>
<path d="M26.5 9.6H31.7C32.0448 9.6 32.3754 9.73696 32.6192 9.98076C32.863 10.2246 33 10.5552 33 10.9V31.7C33 32.0448 32.863 32.3754 32.6192 32.6192C32.3754 32.863 32.0448 33 31.7 33H8.3C7.95522 33 7.62456 32.863 7.38076 32.6192C7.13696 32.3754 7 32.0448 7 31.7V10.9C7 10.5552 7.13696 10.2246 7.38076 9.98076C7.62456 9.73696 7.95522 9.6 8.3 9.6H13.5V7H16.1V9.6H23.9V7H26.5V9.6ZM23.9 12.2H16.1V14.8H13.5V12.2H9.6V17.4H30.4V12.2H26.5V14.8H23.9V12.2ZM30.4 20H9.6V30.4H30.4V20ZM12.2 23.9H14.8V26.5H12.2V23.9ZM17.4 23.9H27.8V26.5H17.4V23.9Z" fill="#CA03C2"/>
</svg>
