<svg width="40" height="40" viewBox="0 0 40 40" fill="none" xmlns="http://www.w3.org/2000/svg">
<path d="M32 0H8C3.58172 0 0 3.58172 0 8V32C0 36.4183 3.58172 40 8 40H32C36.4183 40 40 36.4183 40 32V8C40 3.58172 36.4183 0 32 0Z" fill="#FFCF3F" fill-opacity="0.08"/>
<g clip-path="url(#clip0_1_17)">
<path fill-rule="evenodd" clip-rule="evenodd" d="M13.2322 8.00427H18.2914L22.849 16.6399C22.9466 16.823 23.089 16.9672 23.2513 17.059H16.4482L13.2322 8V8.00427ZM20.0001 21.4958L21.1696 24.47L24.2489 24.7119L21.8921 26.7952L22.6244 29.9159L20.0001 28.2212L17.3758 29.9159L18.1081 26.7952L15.7491 24.7101L18.8284 24.468L20.0001 21.4958ZM20.0001 18.4137C23.8664 18.4137 27.0002 21.6789 27.0002 25.7068C27.0002 29.7346 23.8664 33 20.0001 33C16.1338 32.9978 13 29.7326 13 25.7045C13 21.6769 16.1338 18.4137 20.0001 18.4137ZM20.6209 8.00427H26.5411L24.1593 14.7134L20.6209 8.00427Z" fill="#FAB62D"/>
</g>
<defs>
<clipPath id="clip0_1_17">
<rect width="14" height="25" fill="white" transform="translate(13 8)"/>
</clipPath>
</defs>
</svg>
