<svg width="40" height="40" viewBox="0 0 40 40" fill="none" xmlns="http://www.w3.org/2000/svg">
<path d="M32 0H8C3.58172 0 0 3.58172 0 8V32C0 36.4183 3.58172 40 8 40H32C36.4183 40 40 36.4183 40 32V8C40 3.58172 36.4183 0 32 0Z" fill="#41BFAD" fill-opacity="0.08"/>
<path d="M14.0289 20.1377C13.0761 19.317 12.9724 17.8825 13.7966 16.9341C14.6213 15.9859 16.0623 15.882 17.0148 16.7029L20.5744 19.775L30.0691 9.78095C30.9333 8.87188 32.374 8.83207 33.2874 9.69171C34.2006 10.5518 34.241 11.9863 33.3771 12.8953L22.4895 24.3558L22.4515 24.3989C21.6273 25.3473 20.1863 25.4508 19.2338 24.6305L14.0289 20.1377ZM11.1351 8H26.9746H26.9757V8.00787H26.9821L23.0848 11.9994H11.1351H11.132V11.9919C11.1091 11.9919 11.0806 12.0083 11.0542 12.0346L11.0503 12.0307L11.0463 12.0346C11.0239 12.0569 11.0098 12.0856 11.0098 12.1149H11.0177V12.116V27.884V27.8867H11.01C11.01 27.9094 11.027 27.9378 11.0533 27.9643L11.0494 27.9682L11.0533 27.9717C11.0757 27.9945 11.1045 28.0081 11.1335 28.0081V28.0008H11.1351H26.9746H26.9773V28.0081C27.0056 28.0081 27.0366 27.9919 27.063 27.9654C27.0856 27.9431 27.0994 27.9147 27.0994 27.8851H27.092V27.8843V23.9807L31.1095 19.8656V27.884V27.8849H31.1013C31.1009 29.0188 30.6362 30.0489 29.8882 30.7926C29.1458 31.5317 28.1155 31.991 26.9775 31.9921V31.9998H26.9748H11.1351H11.1335V31.9921C9.99644 31.9912 8.96393 31.5304 8.21664 30.7878L8.21268 30.7917C7.47022 30.0526 7.00923 29.0243 7.00791 27.8867H7V27.884V12.116V12.1149H7.00791C7.00835 10.9825 7.47176 9.95529 8.21773 9.21136L8.21378 9.20743C8.95602 8.46788 9.98853 8.00897 11.1322 8.00809V8H11.1351Z" fill="#FFA183"/>
</svg>
