<svg width="40" height="40" viewBox="0 0 40 40" fill="none" xmlns="http://www.w3.org/2000/svg">
<path d="M32 0H8C3.58172 0 0 3.58172 0 8V32C0 36.4183 3.58172 40 8 40H32C36.4183 40 40 36.4183 40 32V8C40 3.58172 36.4183 0 32 0Z" fill="#FFAE3B" fill-opacity="0.08"/>
<path d="M7.93952 21.7459L16.2978 25.8411C16.5139 25.9465 16.7439 26 16.9818 26C17.2915 26 17.5935 25.9073 17.856 25.7314C18.3259 25.415 18.6067 24.8757 18.6067 24.2888V24.2439C18.6067 23.5805 18.2377 22.9713 17.6665 22.6918L12.4389 20.1328L17.6665 17.5734C18.2377 17.2936 18.6067 16.6846 18.6067 16.0215V15.977C18.6067 15.3893 18.3259 14.8497 17.856 14.5344C17.5961 14.3595 17.2934 14.2669 16.9808 14.2669C16.7451 14.2669 16.5088 14.3215 16.2972 14.4251L7.93939 18.5199C7.36873 18.7996 7 19.4089 7 20.0718V20.1942C6.99987 20.856 7.36833 21.4651 7.93952 21.7459Z" fill="#8A62D6"/>
<path d="M22.3931 15.7545C22.3931 16.4168 22.7618 17.026 23.3331 17.3072L28.5607 19.8658L23.3331 22.4246C22.7621 22.7044 22.3931 23.3136 22.3931 23.9767V24.0216C22.3931 24.6086 22.6735 25.1479 23.144 25.4645C23.4056 25.6401 23.7077 25.7331 24.0178 25.7331C24.2554 25.7331 24.4853 25.6796 24.7028 25.5737L33.0606 21.4786C33.6313 21.1982 34 20.5891 34 19.927V19.8046C34 19.1418 33.6313 18.5324 33.0601 18.2527L24.7023 14.1579C24.4915 14.0546 24.2554 14 24.0197 14C23.7077 14 23.4045 14.0923 23.1447 14.2669C22.6742 14.5828 22.3935 15.1222 22.3935 15.7099V15.7543L22.3931 15.7545Z" fill="#8A62D6"/>
</svg>
