<svg width="40" height="40" viewBox="0 0 40 40" fill="none" xmlns="http://www.w3.org/2000/svg">
<path d="M32 0H8C3.58172 0 0 3.58172 0 8V32C0 36.4183 3.58172 40 8 40H32C36.4183 40 40 36.4183 40 32V8C40 3.58172 36.4183 0 32 0Z" fill="#6C7BD4" fill-opacity="0.08"/>
<path d="M25.653 14.3469C24.912 13.6023 24.0311 13.0117 23.0609 12.6089C22.0907 12.2061 21.0505 11.9992 20 12V20C20.076 20.214 25.34 25.9051 25.667 25.6531C26.4094 24.9103 26.9979 24.0284 27.399 23.0579C27.8002 22.0874 28.006 21.0472 28.0047 19.9971C28.0034 18.9469 27.795 17.9075 27.3915 16.938C26.9879 15.9685 26.3972 15.0879 25.653 14.3469ZM20 6.66699C17.363 6.66699 14.7852 7.44901 12.5926 8.91406C10.4 10.3791 8.69106 12.4614 7.68192 14.8977C6.67277 17.334 6.40873 20.0147 6.92319 22.6011C7.43764 25.1874 8.70749 27.5631 10.5721 29.4277C12.4368 31.2924 14.8125 32.5624 17.3989 33.0769C19.9852 33.5914 22.666 33.3273 25.1023 32.3181C27.5386 31.309 29.6209 29.6001 31.086 27.4075C32.551 25.2149 33.333 22.637 33.333 20C33.3317 16.4643 31.9265 13.0739 29.4264 10.5737C26.9263 8.0736 23.5357 6.66832 20 6.66699ZM20 30.667C17.8903 30.667 15.8279 30.0415 14.0737 28.8694C12.3196 27.6973 10.9523 26.0312 10.145 24.082C9.33761 22.1329 9.12638 19.9881 9.53796 17.9189C9.94955 15.8498 10.9655 13.9491 12.4573 12.4573C13.9491 10.9655 15.8498 9.94943 17.919 9.53784C19.9882 9.12625 22.1329 9.33766 24.0821 10.145C26.0312 10.9524 27.6972 12.3196 28.8693 14.0737C30.0414 15.8279 30.667 17.8903 30.667 20C30.6674 21.4009 30.3917 22.7882 29.8558 24.0825C29.3199 25.3769 28.5342 26.5531 27.5436 27.5437C26.553 28.5343 25.3769 29.3198 24.0826 29.8557C22.7882 30.3916 21.4009 30.6674 20 30.667Z" fill="url(#paint0_linear_1_12)"/>
<defs>
<linearGradient id="paint0_linear_1_12" x1="20" y1="6.66699" x2="20" y2="33.3331" gradientUnits="userSpaceOnUse">
<stop stop-color="#1A16D9"/>
<stop offset="1" stop-color="#F39D9D"/>
</linearGradient>
</defs>
</svg>
