<svg width="57" height="58" viewBox="0 0 57 58" fill="none" xmlns="http://www.w3.org/2000/svg">
<path d="M12.5146 5.71162L28.7108 1L44.318 5.71162C47.3412 6.6932 48.0316 10.1778 47.9989 11.7975V39.331C46.7032 48.6364 34.5348 54.791 28.6126 56.705C14.1243 52.3468 9.58619 43.3064 9.12814 39.331V11.7975C9.12836 8 11.075 6.12061 12.5146 5.71162Z" fill="white" stroke="#6D2DAA" stroke-width="1.76686"/>
<path d="M15.0176 16.0897C13.8438 16.0897 13 15.3025 13 14.0353C13 12.7681 13.8299 11.9809 15.0176 11.9809C16.1845 11.9809 17.0054 12.7542 17.0054 13.9687C17.0052 14.0883 16.9982 14.2077 16.9846 14.3265H14.2165C14.2593 14.8493 14.5813 15.0928 14.9749 15.0928C15.1079 15.1013 15.2403 15.0688 15.3542 14.9997C15.4682 14.9305 15.5581 14.8281 15.612 14.7062H16.914C16.7212 15.4884 16.0125 16.0897 15.0176 16.0897ZM14.2225 13.6487H15.7541C15.7541 13.2123 15.4102 12.9619 15.0027 12.9619C14.5952 12.9619 14.2951 13.2054 14.2235 13.6487H14.2225Z" fill="#562288"/>
<path d="M20.3451 16.0322H18.0054V11.0081H20.2666C21.2903 11.0081 21.8985 11.5169 21.8985 12.3111C21.9085 12.5699 21.8299 12.8243 21.6758 13.0325C21.5216 13.2406 21.3012 13.39 21.0507 13.456C21.327 13.5145 21.5743 13.6671 21.7505 13.8877C21.9267 14.1083 22.0209 14.3833 22.0168 14.6656C22.0128 15.4955 21.4046 16.0322 20.3451 16.0322ZM20.03 11.994H19.2289V13.0406H20.03C20.4276 13.0406 20.6532 12.8617 20.6532 12.5188C20.6532 12.1759 20.4315 11.994 20.03 11.994ZM20.1165 13.9401H19.2289V15.0443H20.1304C20.5389 15.0443 20.7744 14.8584 20.7744 14.5006C20.7744 14.1428 20.524 13.9351 20.1165 13.9351V13.9401Z" fill="#562288"/>
<path d="M25.0346 16.0897C23.8608 16.0897 23.0169 15.3026 23.0169 14.0354C23.0169 12.7681 23.8468 11.981 25.0346 11.981C26.2014 11.981 27.0224 12.7542 27.0224 13.9688C27.0221 14.0883 27.0152 14.2078 27.0015 14.3266H24.2335C24.2762 14.8494 24.5982 15.0929 24.9918 15.0929C25.1248 15.1014 25.2572 15.0689 25.3712 14.9997C25.4851 14.9306 25.5751 14.8281 25.6289 14.7062H26.9309C26.7381 15.4884 26.0295 16.0897 25.0346 16.0897ZM24.2394 13.6487H25.771C25.771 13.2124 25.4271 12.9619 25.0196 12.9619C24.6121 12.9619 24.312 13.2054 24.2404 13.6487H24.2394Z" fill="#562288"/>
<path d="M28.0224 11H29.2459V16.0321H28.0224V11Z" fill="#562288"/>
<path d="M32.3072 16.0897C31.1334 16.0897 30.2458 15.3026 30.2458 14.0354C30.2458 12.7681 31.1543 11.981 32.3211 11.981C33.488 11.981 34.3964 12.7691 34.3964 14.0354C34.3964 15.3016 33.481 16.0897 32.3072 16.0897ZM32.3072 15.0302C32.7435 15.0302 33.151 14.7082 33.151 14.0363C33.151 13.3645 32.7535 13.0424 32.3211 13.0424C31.8888 13.0424 31.4912 13.3575 31.4912 14.0363C31.4912 14.7152 31.8629 15.0302 32.3072 15.0302Z" fill="#562288"/>
<path d="M38.1535 13.8635C38.1535 13.3199 37.8553 13.0197 37.3882 13.0197C36.921 13.0197 36.6219 13.3179 36.6219 13.8635V16.0322H35.3964V12.0387H36.6199V12.5685C36.7614 12.3835 36.9449 12.235 37.1553 12.1351C37.3656 12.0351 37.5967 11.9868 37.8295 11.994C38.7528 11.994 39.368 12.6241 39.368 13.6975V16.0322H38.1535V13.8635Z" fill="#562288"/>
<path d="M42.1302 11.981C42.7176 11.981 43.147 12.2463 43.3617 12.6041V12.0386H44.5852V16.0251C44.5852 17.0916 43.9699 18 42.5884 18C41.3957 18 40.6275 17.3987 40.5201 16.4476H41.7277C41.8062 16.7457 42.1074 16.9445 42.5298 16.9445C42.9949 16.9445 43.3597 16.701 43.3597 16.0281V15.4596C43.138 15.8105 42.7156 16.0897 42.1282 16.0897C41.1483 16.0897 40.368 15.2877 40.368 14.0284C40.368 12.7691 41.1502 11.981 42.1302 11.981ZM42.488 13.0474C42.0308 13.0474 41.6154 13.3913 41.6154 14.0284C41.6154 14.6655 42.0308 15.0223 42.488 15.0223C42.9452 15.0223 43.3617 14.6715 43.3617 14.0344C43.3617 13.3973 42.9532 13.0474 42.488 13.0474Z" fill="#562288"/>
<path d="M12.5146 28.0919L28.7108 23.3802L44.318 28.0919C47.3412 29.0735 48.0316 32.5581 47.9989 34.1777V38.4476C46.7032 47.753 34.5348 53.9076 28.6126 55.8217C14.1243 51.4634 9.5862 42.423 9.12815 38.4476V34.1777C8.38214 30.2906 11.075 28.5009 12.5146 28.0919Z" fill="#562288"/>
<path d="M54.4526 23.8133C31.5227 19.6513 10.8374 22.0791 3.36102 23.8133C1.28005 24.2364 1.11973 26.2799 1.29968 27.2488L3.36102 36.3372C3.63586 38.3789 5.47143 38.6276 6.35486 38.4967C26.4185 34.9237 43.966 37.008 50.2318 38.4967C52.6661 38.8108 53.5692 37.1225 53.7164 36.2391L55.6305 28.1813C56.2587 24.9225 55.107 23.9114 54.4526 23.8133Z" fill="white" stroke="#6D2DAA" stroke-width="1.1779"/>
<path d="M34.5252 43.2733C34.5443 43.6022 34.4719 43.9298 34.3159 44.22C34.1599 44.5101 33.9265 44.7512 33.6417 44.9167C33.0143 45.3018 32.3765 45.6678 31.7439 46.0442C31.6697 46.0817 31.6035 46.1332 31.5488 46.1958C30.878 47.0566 29.9421 47.6722 28.886 47.9472C28.3405 48.0761 27.9118 48.4456 27.4762 48.7732C27.1105 49.0309 26.728 49.2638 26.3312 49.4702C25.9548 49.6828 25.5836 49.9495 25.141 49.993C24.8064 50.0243 24.4704 49.9493 24.1808 49.7787C23.0986 49.1583 22.4695 47.3808 23.5935 46.4763C24.1948 45.9755 24.8614 45.5587 25.5749 45.2373C26.2488 44.9367 26.891 44.5695 27.4918 44.1412C27.8561 43.8937 28.222 43.6445 28.6089 43.4302C29.3249 43.0155 30.0183 42.5629 30.6861 42.0744C31.1933 41.7171 31.7317 41.3268 32.3591 41.2501C32.6395 41.2159 32.9241 41.2434 33.1927 41.3309C33.4613 41.4184 33.7075 41.5637 33.914 41.7566C34.1205 41.9494 34.2822 42.1851 34.3878 42.4472C34.4934 42.7092 34.5403 42.9912 34.5252 43.2733ZM27.6347 45.2007C27.8961 45.5493 28.1262 45.781 28.2569 46.0599C28.2932 46.1512 28.3068 46.25 28.2965 46.3477C28.2862 46.4455 28.2522 46.5393 28.1976 46.621C28.0896 46.7221 27.8073 46.7099 27.6313 46.6524C27.4537 46.5764 27.2983 46.4564 27.1799 46.3038C27.0442 46.1401 26.8559 46.0285 26.6471 45.9881C26.4383 45.9478 26.2219 45.9811 26.035 46.0825C25.4506 46.3795 24.8947 46.7295 24.3742 47.1281C24.1596 47.3014 24.0221 47.5525 23.9917 47.8266C23.9614 48.1008 24.0406 48.3759 24.2122 48.5919C24.3655 48.8023 24.5934 48.9462 24.8493 48.9941C25.1052 49.042 25.3698 48.9904 25.5889 48.8499C25.9025 48.6756 26.2075 48.4752 26.5194 48.2922C26.8314 48.1092 26.8924 47.975 26.5996 47.6927C26.3991 47.4647 26.2389 47.2042 26.1256 46.9225C25.9775 46.6227 26.143 46.4851 26.4323 46.4467C26.793 46.3979 27.044 46.5792 27.2688 46.8249C27.6051 47.1926 28.0425 47.4366 28.4974 47.203C29.2106 46.824 29.894 46.3911 30.5415 45.9082C30.904 45.6486 30.9929 45.2303 30.8238 44.779C30.7339 44.5759 30.6939 44.3542 30.7071 44.1325C30.7287 44.0437 30.769 43.9605 30.8251 43.8884C30.8813 43.8163 30.9521 43.757 31.0329 43.7142C31.1201 43.6724 31.3571 43.7961 31.4355 43.9094C31.5771 44.1292 31.6868 44.368 31.7614 44.6187C31.8415 44.8714 31.9565 44.9393 32.1848 44.7929C32.5037 44.596 32.8314 44.4113 33.145 44.2039C33.3915 44.043 33.569 43.7959 33.6428 43.5109C33.7166 43.226 33.6814 42.9238 33.5441 42.6634C33.4612 42.5343 33.3533 42.423 33.2269 42.336C33.1005 42.2491 32.958 42.1881 32.8078 42.1568C32.6576 42.1255 32.5026 42.1245 32.352 42.1537C32.2013 42.1829 32.058 42.2419 31.9304 42.3271C31.5035 42.5885 31.08 42.8499 30.6583 43.1235C30.4218 43.256 30.2433 43.472 30.1575 43.7291C30.0718 43.9863 30.0851 44.2662 30.1947 44.5141C30.2575 44.6884 30.4125 44.8208 30.369 44.9916C30.3254 45.1624 30.1825 45.4081 30.0379 45.4447C29.9379 45.4528 29.8374 45.4382 29.7438 45.402C29.6503 45.3658 29.5661 45.3089 29.4977 45.2356C29.3664 45.0316 29.2499 44.8184 29.1491 44.5978C29.0986 44.5054 28.9574 44.359 28.9104 44.3869C28.4939 44.6274 28.039 44.9358 27.6347 45.2007Z" fill="white"/>
<path d="M10.4035 31.5056C10.2104 32.0242 9.77684 32.4546 9.19846 32.5885C8.27467 32.8023 7.42141 32.1873 7.20016 31.2314C6.97705 30.2674 7.47333 29.3401 8.39712 29.1263C8.97549 28.9924 9.51451 29.1639 9.91399 29.5369L10.7175 28.6569C10.0719 28.0616 9.13663 27.7872 8.14054 28.0177C6.56608 28.3822 5.65676 29.9383 6.01931 31.5047C6.38001 33.0631 7.88058 34.0615 9.45504 33.697C10.4592 33.4646 11.1929 32.7955 11.5039 31.9449L10.4035 31.5056Z" fill="#6D2DAA"/>
<path d="M13.1006 32.8483L16.7228 32.263L16.5531 31.213L14.1193 31.6062L13.926 30.4097L15.9935 30.0757L15.8265 29.0419L13.759 29.3759L13.5525 28.098L15.913 27.7166L15.7434 26.6666L12.1944 27.24L13.1006 32.8483Z" fill="#6D2DAA"/>
<path d="M20.1433 27.2417C20.603 27.1976 20.8671 27.6195 20.901 27.9724C20.9357 28.3335 20.7313 28.7922 20.2635 28.8371L19.2457 28.9349L19.0928 27.3426L20.1433 27.2417ZM20.9178 29.7848C21.8673 29.4948 22.2333 28.6479 22.1568 27.8518C22.0677 26.9243 21.3795 26.0544 20.0991 26.1774L17.7845 26.3998L18.3278 32.0548L19.5343 31.9389L19.3466 29.9855L19.6175 29.9594L21.0691 31.7914L22.5136 31.6527L20.9178 29.7848Z" fill="#6D2DAA"/>
<path d="M23.5039 26.9917L25.0368 26.9436L25.1807 31.534L26.4004 31.4958L26.2565 26.9054L27.7893 26.8573L27.7552 25.7695L23.4698 25.9039L23.5039 26.9917Z" fill="#6D2DAA"/>
<path d="M29.4693 25.7939L29.3722 31.4741L30.5758 31.4947L30.673 25.8145L29.4693 25.7939Z" fill="#6D2DAA"/>
<path d="M32.4042 31.5453L33.6138 31.6227L33.7584 29.3598L35.6099 29.4782L35.6772 28.4249L33.8258 28.3066L33.9084 27.0147L36.2453 27.1641L36.3131 26.1026L32.7666 25.8759L32.4042 31.5453Z" fill="#6D2DAA"/>
<path d="M38.0097 26.2829L37.3827 31.9293L38.5792 32.0621L39.2062 26.4158L38.0097 26.2829Z" fill="#6D2DAA"/>
<path d="M40.3958 32.2804L44.0187 32.8615L44.1872 31.8112L41.7529 31.4208L41.9449 30.224L44.0128 30.5557L44.1786 29.5218L42.1107 29.1901L42.3157 27.9119L44.6767 28.2906L44.8452 27.2404L41.2956 26.671L40.3958 32.2804Z" fill="#6D2DAA"/>
<path d="M47.8128 28.9641L48.809 29.1941C49.6847 29.3962 49.951 30.2955 49.7396 31.2113C49.53 32.1192 48.9002 32.7946 48.0245 32.5925L47.0283 32.3625L47.8128 28.9641ZM47.7778 33.661C49.3605 34.0264 50.549 33.0568 50.9126 31.4821C51.2761 29.9075 50.6384 28.4909 49.0557 28.1255L46.8865 27.6248L45.6086 33.1602L47.7778 33.661Z" fill="#6D2DAA"/>
</svg>
