<svg width="409" height="281" viewBox="0 0 409 281" fill="none" xmlns="http://www.w3.org/2000/svg">
<g clip-path="url(#clip0)">
<path d="M404.073 279.919H4.12517C1.72067 279.919 0.117676 277.92 0.117676 275.922V38.4707H408.08V275.922C408.08 278.32 406.477 279.919 404.073 279.919Z" fill="white"/>
<path d="M408.08 38.4703V4.49163C408.08 2.09314 406.077 0.494141 404.073 0.494141H4.12517C1.72067 0.494141 0.117676 2.49289 0.117676 4.49163V38.4703H408.08Z" fill="#E8E8E8"/>
<path d="M34.1813 25.6783C37.2799 25.6783 39.7918 23.1727 39.7918 20.0818C39.7918 16.991 37.2799 14.4854 34.1813 14.4854C31.0827 14.4854 28.5708 16.991 28.5708 20.0818C28.5708 23.1727 31.0827 25.6783 34.1813 25.6783Z" fill="#F3746B"/>
<path d="M55.4025 25.6783C58.5011 25.6783 61.013 23.1727 61.013 20.0818C61.013 16.991 58.5011 14.4854 55.4025 14.4854C52.3039 14.4854 49.792 16.991 49.792 20.0818C49.792 23.1727 52.3039 25.6783 55.4025 25.6783Z" fill="#FFCC0D"/>
<path d="M76.6232 25.6783C79.7218 25.6783 82.2337 23.1727 82.2337 20.0818C82.2337 16.991 79.7218 14.4854 76.6232 14.4854C73.5246 14.4854 71.0127 16.991 71.0127 20.0818C71.0127 23.1727 73.5246 25.6783 76.6232 25.6783Z" fill="#34BA08"/>
<g filter="url(#filter0_d)">
<path d="M263.201 205H148V230.309H263.201V205Z" fill="#E2E2E2"/>
<path d="M148.5 205.5H262.701V229.809H148.5V205.5Z" stroke="#D3D3D3" stroke-opacity="0.96"/>
</g>
<path d="M184.976 223.16C184.112 223.16 183.275 223.037 182.464 222.792C181.664 222.547 181.029 222.221 180.56 221.816L181.28 220.2C181.739 220.563 182.299 220.861 182.96 221.096C183.632 221.32 184.304 221.432 184.976 221.432C185.808 221.432 186.427 221.299 186.832 221.032C187.248 220.765 187.456 220.413 187.456 219.976C187.456 219.656 187.339 219.395 187.104 219.192C186.88 218.979 186.592 218.813 186.24 218.696C185.888 218.579 185.408 218.445 184.8 218.296C183.947 218.093 183.253 217.891 182.72 217.688C182.197 217.485 181.744 217.171 181.36 216.744C180.987 216.307 180.8 215.72 180.8 214.984C180.8 214.365 180.965 213.805 181.296 213.304C181.637 212.792 182.144 212.387 182.816 212.088C183.499 211.789 184.331 211.64 185.312 211.64C185.995 211.64 186.667 211.725 187.328 211.896C187.989 212.067 188.56 212.312 189.04 212.632L188.384 214.248C187.893 213.96 187.381 213.741 186.848 213.592C186.315 213.443 185.797 213.368 185.296 213.368C184.475 213.368 183.861 213.507 183.456 213.784C183.061 214.061 182.864 214.429 182.864 214.888C182.864 215.208 182.976 215.469 183.2 215.672C183.435 215.875 183.728 216.035 184.08 216.152C184.432 216.269 184.912 216.403 185.52 216.552C186.352 216.744 187.035 216.947 187.568 217.16C188.101 217.363 188.555 217.677 188.928 218.104C189.312 218.531 189.504 219.107 189.504 219.832C189.504 220.451 189.333 221.011 188.992 221.512C188.661 222.013 188.155 222.413 187.472 222.712C186.789 223.011 185.957 223.16 184.976 223.16ZM199.407 218.776C199.407 218.915 199.396 219.112 199.375 219.368H192.671C192.788 219.997 193.092 220.499 193.583 220.872C194.084 221.235 194.703 221.416 195.439 221.416C196.377 221.416 197.151 221.107 197.759 220.488L198.831 221.72C198.447 222.179 197.961 222.525 197.375 222.76C196.788 222.995 196.127 223.112 195.391 223.112C194.452 223.112 193.625 222.925 192.911 222.552C192.196 222.179 191.641 221.661 191.247 221C190.863 220.328 190.671 219.571 190.671 218.728C190.671 217.896 190.857 217.149 191.231 216.488C191.615 215.816 192.143 215.293 192.815 214.92C193.487 214.547 194.244 214.36 195.087 214.36C195.919 214.36 196.66 214.547 197.311 214.92C197.972 215.283 198.484 215.8 198.847 216.472C199.22 217.133 199.407 217.901 199.407 218.776ZM195.087 215.96C194.447 215.96 193.903 216.152 193.455 216.536C193.017 216.909 192.751 217.411 192.655 218.04H197.503C197.417 217.421 197.156 216.92 196.719 216.536C196.281 216.152 195.737 215.96 195.087 215.96ZM201.328 211.128H203.328V223H201.328V211.128ZM213.985 218.776C213.985 218.915 213.974 219.112 213.953 219.368H207.249C207.366 219.997 207.67 220.499 208.161 220.872C208.662 221.235 209.281 221.416 210.017 221.416C210.955 221.416 211.729 221.107 212.337 220.488L213.409 221.72C213.025 222.179 212.539 222.525 211.953 222.76C211.366 222.995 210.705 223.112 209.969 223.112C209.03 223.112 208.203 222.925 207.489 222.552C206.774 222.179 206.219 221.661 205.825 221C205.441 220.328 205.249 219.571 205.249 218.728C205.249 217.896 205.435 217.149 205.809 216.488C206.193 215.816 206.721 215.293 207.393 214.92C208.065 214.547 208.822 214.36 209.665 214.36C210.497 214.36 211.238 214.547 211.889 214.92C212.55 215.283 213.062 215.8 213.425 216.472C213.798 217.133 213.985 217.901 213.985 218.776ZM209.665 215.96C209.025 215.96 208.481 216.152 208.033 216.536C207.595 216.909 207.329 217.411 207.233 218.04H212.081C211.995 217.421 211.734 216.92 211.297 216.536C210.859 216.152 210.315 215.96 209.665 215.96ZM219.826 223.112C218.94 223.112 218.146 222.925 217.442 222.552C216.738 222.179 216.188 221.661 215.794 221C215.399 220.328 215.202 219.571 215.202 218.728C215.202 217.885 215.399 217.133 215.794 216.472C216.188 215.811 216.732 215.293 217.426 214.92C218.13 214.547 218.93 214.36 219.826 214.36C220.668 214.36 221.404 214.531 222.034 214.872C222.674 215.213 223.154 215.704 223.474 216.344L221.938 217.24C221.692 216.845 221.383 216.552 221.01 216.36C220.647 216.157 220.247 216.056 219.81 216.056C219.063 216.056 218.444 216.301 217.954 216.792C217.463 217.272 217.218 217.917 217.218 218.728C217.218 219.539 217.458 220.189 217.938 220.68C218.428 221.16 219.052 221.4 219.81 221.4C220.247 221.4 220.647 221.304 221.01 221.112C221.383 220.909 221.692 220.611 221.938 220.216L223.474 221.112C223.143 221.752 222.658 222.248 222.018 222.6C221.388 222.941 220.658 223.112 219.826 223.112ZM230.448 222.536C230.213 222.728 229.925 222.872 229.584 222.968C229.253 223.064 228.901 223.112 228.528 223.112C227.589 223.112 226.864 222.867 226.352 222.376C225.84 221.885 225.584 221.171 225.584 220.232V216.12H224.176V214.52H225.584V212.568H227.584V214.52H229.872V216.12H227.584V220.184C227.584 220.6 227.685 220.92 227.888 221.144C228.091 221.357 228.384 221.464 228.768 221.464C229.216 221.464 229.589 221.347 229.888 221.112L230.448 222.536Z" fill="#CACACA"/>
<path d="M134.491 127.745C134.491 147.955 117.955 164.491 97.7454 164.491C77.5354 164.491 61 147.955 61 127.745C61 107.535 77.5354 91 97.7454 91C117.955 91 134.491 107.535 134.491 127.745Z" fill="#E0E0E0"/>
<path d="M110.239 124.437C110.239 131.052 104.727 136.563 98.1128 136.563C91.4986 136.563 85.9868 131.052 85.9868 124.437C85.9868 117.823 91.4986 112.312 98.1128 112.312C104.727 112.312 110.239 117.823 110.239 124.437Z" fill="#B2B2B2"/>
<path d="M108.769 137.668C106.197 139.873 103.257 140.975 99.5827 141.343C99.2152 141.343 98.4803 141.343 97.7454 141.343C97.0105 141.343 96.6431 141.343 95.9081 141.343C92.6011 140.975 89.294 139.505 86.7218 137.668C79.3727 140.975 73.8609 147.589 72.3911 155.673C79.0053 161.552 87.4567 165.227 97.0105 165.227C106.932 165.227 116.118 161.185 122.732 154.938C121.262 146.854 115.751 140.608 108.769 137.668Z" fill="#B2B2B2"/>
<path d="M346.491 127.745C346.491 147.955 329.955 164.491 309.745 164.491C289.535 164.491 273 147.955 273 127.745C273 107.535 289.535 91 309.745 91C329.955 91 346.491 107.535 346.491 127.745Z" fill="#BBBBBB"/>
<path d="M322.239 123.437C322.239 130.052 316.727 135.563 310.113 135.563C303.499 135.563 297.987 130.052 297.987 123.437C297.987 116.823 303.499 111.312 310.113 111.312C316.727 111.312 322.239 116.823 322.239 123.437Z" fill="white"/>
<path d="M320.769 136.668C318.197 138.873 315.257 139.975 311.583 140.343C311.215 140.343 310.48 140.343 309.745 140.343C309.011 140.343 308.643 140.343 307.908 140.343C304.601 139.975 301.294 138.505 298.722 136.668C291.373 139.975 285.861 146.589 284.391 154.673C291.005 160.552 299.446 164.5 309 164.5C319.489 165.273 328.386 160.747 335 154.5C333.53 146.416 327.751 139.608 320.769 136.668Z" fill="white"/>
<path d="M354.822 187.511L342.605 175.49L352.921 168.933C353.193 168.66 352.921 168.114 352.65 168.114L316.543 155C316.271 155 316 155.273 316 155.546L329.031 191.883C329.031 192.156 329.574 192.429 329.845 192.156L336.361 181.774L348.306 193.795C348.578 194.068 349.121 194.068 349.392 193.795L354.55 188.604C355.093 188.331 355.093 187.785 354.822 187.511Z" fill="#BBBBBB"/>
<path d="M240.491 127.745C240.491 147.955 223.955 164.491 203.745 164.491C183.535 164.491 167 147.955 167 127.745C167 107.535 183.535 91 203.745 91C223.955 91 240.491 107.535 240.491 127.745Z" fill="#E0E0E0"/>
<path d="M216.239 124.437C216.239 131.052 210.727 136.563 204.113 136.563C197.499 136.563 191.987 131.052 191.987 124.437C191.987 117.823 197.499 112.312 204.113 112.312C210.727 112.312 216.239 117.823 216.239 124.437Z" fill="#B2B2B2"/>
<path d="M214.769 137.668C212.197 139.873 209.257 140.975 205.583 141.343C205.215 141.343 204.48 141.343 203.745 141.343C203.011 141.343 202.643 141.343 201.908 141.343C198.601 140.975 195.294 139.505 192.722 137.668C185.373 140.975 179.861 147.589 178.391 155.673C185.005 161.552 193.457 165.227 203.011 165.227C212.932 165.227 222.118 161.185 228.732 154.938C227.262 146.854 221.751 140.608 214.769 137.668Z" fill="#B2B2B2"/>
</g>
<defs>
<filter id="filter0_d" x="135" y="193" width="141.201" height="51.3088" filterUnits="userSpaceOnUse" color-interpolation-filters="sRGB">
<feFlood flood-opacity="0" result="BackgroundImageFix"/>
<feColorMatrix in="SourceAlpha" type="matrix" values="0 0 0 0 0 0 0 0 0 0 0 0 0 0 0 0 0 0 127 0"/>
<feOffset dy="1"/>
<feGaussianBlur stdDeviation="6.5"/>
<feColorMatrix type="matrix" values="0 0 0 0 0 0 0 0 0 0 0 0 0 0 0 0 0 0 0.08 0"/>
<feBlend mode="normal" in2="BackgroundImageFix" result="effect1_dropShadow"/>
<feBlend mode="normal" in="SourceGraphic" in2="effect1_dropShadow" result="shape"/>
</filter>
<clipPath id="clip0">
<rect width="409" height="281" fill="white"/>
</clipPath>
</defs>
</svg>
