<svg width="409" height="281" viewBox="0 0 409 281" fill="none" xmlns="http://www.w3.org/2000/svg">
<g clip-path="url(#clip0)">
<path d="M403.955 279.448H4.00749C1.603 279.448 0 277.45 0 275.451V38H407.963V275.451C407.963 277.849 406.36 279.448 403.955 279.448Z" fill="white"/>
<path d="M408.08 38.4703V4.49163C408.08 2.09314 406.077 0.494141 404.073 0.494141H4.12517C1.72067 0.494141 0.117676 2.49289 0.117676 4.49163V38.4703H408.08Z" fill="#E8E8E8"/>
<path d="M34.1813 25.6783C37.2799 25.6783 39.7918 23.1727 39.7918 20.0818C39.7918 16.991 37.2799 14.4854 34.1813 14.4854C31.0827 14.4854 28.5708 16.991 28.5708 20.0818C28.5708 23.1727 31.0827 25.6783 34.1813 25.6783Z" fill="#F3746B"/>
<path d="M55.4025 25.6783C58.5011 25.6783 61.013 23.1727 61.013 20.0818C61.013 16.991 58.5011 14.4854 55.4025 14.4854C52.3039 14.4854 49.792 16.991 49.792 20.0818C49.792 23.1727 52.3039 25.6783 55.4025 25.6783Z" fill="#FFCC0D"/>
<path d="M76.6232 25.6783C79.7218 25.6783 82.2337 23.1727 82.2337 20.0818C82.2337 16.991 79.7218 14.4854 76.6232 14.4854C73.5246 14.4854 71.0127 16.991 71.0127 20.0818C71.0127 23.1727 73.5246 25.6783 76.6232 25.6783Z" fill="#34BA08"/>
<g filter="url(#filter0_d)">
<path d="M263.201 205H148V230.309H263.201V205Z" fill="#E2E2E2"/>
<path d="M148.5 205.5H262.701V229.809H148.5V205.5Z" stroke="#D3D3D3" stroke-opacity="0.96"/>
</g>
<path d="M179.768 220.408H174.168L173.064 223H170.92L175.96 211.8H178.008L183.064 223H180.888L179.768 220.408ZM179.08 218.776L176.968 213.88L174.872 218.776H179.08ZM189.032 214.36C189.864 214.36 190.606 214.541 191.256 214.904C191.918 215.267 192.435 215.779 192.808 216.44C193.182 217.101 193.368 217.864 193.368 218.728C193.368 219.592 193.182 220.36 192.808 221.032C192.435 221.693 191.918 222.205 191.256 222.568C190.606 222.931 189.864 223.112 189.032 223.112C187.88 223.112 186.968 222.728 186.296 221.96V226.104H184.296V214.456H186.2V215.576C186.531 215.171 186.936 214.867 187.416 214.664C187.907 214.461 188.446 214.36 189.032 214.36ZM188.808 221.4C189.544 221.4 190.147 221.155 190.616 220.664C191.096 220.173 191.336 219.528 191.336 218.728C191.336 217.928 191.096 217.283 190.616 216.792C190.147 216.301 189.544 216.056 188.808 216.056C188.328 216.056 187.896 216.168 187.512 216.392C187.128 216.605 186.824 216.915 186.6 217.32C186.376 217.725 186.264 218.195 186.264 218.728C186.264 219.261 186.376 219.731 186.6 220.136C186.824 220.541 187.128 220.856 187.512 221.08C187.896 221.293 188.328 221.4 188.808 221.4ZM200.001 214.36C200.833 214.36 201.574 214.541 202.225 214.904C202.886 215.267 203.404 215.779 203.777 216.44C204.15 217.101 204.337 217.864 204.337 218.728C204.337 219.592 204.15 220.36 203.777 221.032C203.404 221.693 202.886 222.205 202.225 222.568C201.574 222.931 200.833 223.112 200.001 223.112C198.849 223.112 197.937 222.728 197.265 221.96V226.104H195.265V214.456H197.169V215.576C197.5 215.171 197.905 214.867 198.385 214.664C198.876 214.461 199.414 214.36 200.001 214.36ZM199.777 221.4C200.513 221.4 201.116 221.155 201.585 220.664C202.065 220.173 202.305 219.528 202.305 218.728C202.305 217.928 202.065 217.283 201.585 216.792C201.116 216.301 200.513 216.056 199.777 216.056C199.297 216.056 198.865 216.168 198.481 216.392C198.097 216.605 197.793 216.915 197.569 217.32C197.345 217.725 197.233 218.195 197.233 218.728C197.233 219.261 197.345 219.731 197.569 220.136C197.793 220.541 198.097 220.856 198.481 221.08C198.865 221.293 199.297 221.4 199.777 221.4ZM208.138 215.704C208.714 214.808 209.727 214.36 211.178 214.36V216.264C211.007 216.232 210.853 216.216 210.714 216.216C209.935 216.216 209.327 216.445 208.89 216.904C208.453 217.352 208.234 218.003 208.234 218.856V223H206.234V214.456H208.138V215.704ZM216.636 223.112C215.772 223.112 214.994 222.925 214.3 222.552C213.607 222.179 213.063 221.661 212.668 221C212.284 220.328 212.092 219.571 212.092 218.728C212.092 217.885 212.284 217.133 212.668 216.472C213.063 215.811 213.607 215.293 214.3 214.92C214.994 214.547 215.772 214.36 216.636 214.36C217.511 214.36 218.295 214.547 218.988 214.92C219.682 215.293 220.22 215.811 220.604 216.472C220.999 217.133 221.196 217.885 221.196 218.728C221.196 219.571 220.999 220.328 220.604 221C220.22 221.661 219.682 222.179 218.988 222.552C218.295 222.925 217.511 223.112 216.636 223.112ZM216.636 221.4C217.372 221.4 217.98 221.155 218.46 220.664C218.94 220.173 219.18 219.528 219.18 218.728C219.18 217.928 218.94 217.283 218.46 216.792C217.98 216.301 217.372 216.056 216.636 216.056C215.9 216.056 215.292 216.301 214.812 216.792C214.343 217.283 214.108 217.928 214.108 218.728C214.108 219.528 214.343 220.173 214.812 220.664C215.292 221.155 215.9 221.4 216.636 221.4ZM230.875 214.456L227.211 223H225.147L221.482 214.456H223.562L226.219 220.792L228.955 214.456H230.875ZM239.922 218.776C239.922 218.915 239.911 219.112 239.89 219.368H233.186C233.303 219.997 233.607 220.499 234.098 220.872C234.599 221.235 235.218 221.416 235.954 221.416C236.893 221.416 237.666 221.107 238.274 220.488L239.346 221.72C238.962 222.179 238.477 222.525 237.89 222.76C237.303 222.995 236.642 223.112 235.906 223.112C234.967 223.112 234.141 222.925 233.426 222.552C232.711 222.179 232.157 221.661 231.762 221C231.378 220.328 231.186 219.571 231.186 218.728C231.186 217.896 231.373 217.149 231.746 216.488C232.13 215.816 232.658 215.293 233.33 214.92C234.002 214.547 234.759 214.36 235.602 214.36C236.434 214.36 237.175 214.547 237.826 214.92C238.487 215.283 238.999 215.8 239.362 216.472C239.735 217.133 239.922 217.901 239.922 218.776ZM235.602 215.96C234.962 215.96 234.418 216.152 233.97 216.536C233.533 216.909 233.266 217.411 233.17 218.04H238.018C237.933 217.421 237.671 216.92 237.234 216.536C236.797 216.152 236.253 215.96 235.602 215.96Z" fill="#CACACA"/>
<path d="M240.701 101.107H167.299C163.826 101.107 161 103.933 161 107.406V162.836C161 166.309 163.826 169.135 167.299 169.135H194.183L192.667 174.442C192.058 176.573 189.671 178.373 187.455 178.373H177.965C177.269 178.373 176.705 178.937 176.705 179.633C176.705 180.329 177.269 180.893 177.965 180.893H230.035C230.731 180.893 231.295 180.329 231.295 179.633C231.295 178.937 230.731 178.373 230.035 178.373H220.545C218.329 178.373 215.942 176.573 215.333 174.442L213.817 169.135H240.701C244.174 169.135 247 166.309 247 162.836V107.406C247 103.933 244.174 101.107 240.701 101.107ZM167.299 103.627H240.701C242.785 103.627 244.48 105.322 244.48 107.406V151.498H163.52V107.406C163.52 105.322 165.215 103.627 167.299 103.627ZM212.91 175.134C213.256 176.344 213.943 177.456 214.844 178.373H193.156C194.057 177.456 194.744 176.344 195.09 175.134L196.804 169.135H211.196L212.91 175.134ZM240.701 166.615H167.299C165.215 166.615 163.52 164.92 163.52 162.836V154.018H244.48V162.836C244.48 164.92 242.785 166.615 240.701 166.615Z" fill="#B2B2B2"/>
<path d="M167.299 148.979H240.701C241.397 148.979 241.961 148.415 241.961 147.719V107.406C241.961 106.71 241.397 106.146 240.701 106.146H167.299C166.603 106.146 166.039 106.71 166.039 107.406V125.043C166.039 125.739 166.603 126.303 167.299 126.303C167.995 126.303 168.559 125.739 168.559 125.043V108.666H239.441V146.459H168.559V130.082C168.559 129.386 167.995 128.822 167.299 128.822C166.603 128.822 166.039 129.386 166.039 130.082V147.719C166.039 148.415 166.603 148.979 167.299 148.979Z" fill="#B2B2B2"/>
<path d="M204 156.537C201.916 156.537 200.221 158.233 200.221 160.316C200.221 162.4 201.916 164.096 204 164.096C206.084 164.096 207.779 162.4 207.779 160.316C207.779 158.233 206.084 156.537 204 156.537ZM204 161.576C203.305 161.576 202.74 161.011 202.74 160.316C202.74 159.622 203.305 159.057 204 159.057C204.695 159.057 205.26 159.622 205.26 160.316C205.26 161.011 204.695 161.576 204 161.576Z" fill="#B2B2B2"/>
<g opacity="0.5">
<path d="M181.333 115.694V116C181.333 116.719 181.1 117.419 180.67 117.994C180.239 118.57 179.634 118.991 178.945 119.195C178.256 119.399 177.519 119.374 176.845 119.125C176.17 118.876 175.595 118.416 175.203 117.813C174.812 117.21 174.626 116.496 174.674 115.779C174.721 115.062 174.999 114.379 175.466 113.833C175.933 113.286 176.564 112.905 177.265 112.747C177.966 112.589 178.7 112.661 179.357 112.954" stroke="#B2B2B2" stroke-width="0.8" stroke-linecap="round" stroke-linejoin="round"/>
<path d="M181.333 113.333L178 116.67L177 115.67" stroke="#B2B2B2" stroke-width="0.8" stroke-linecap="round" stroke-linejoin="round"/>
<rect x="186" y="115" width="49" height="3" rx="1.5" fill="#B2B2B2"/>
</g>
<g opacity="0.5">
<path d="M181.333 126.694V127C181.333 127.719 181.1 128.419 180.67 128.994C180.239 129.57 179.634 129.991 178.945 130.195C178.256 130.399 177.519 130.374 176.845 130.125C176.17 129.876 175.595 129.416 175.203 128.813C174.812 128.21 174.626 127.496 174.674 126.779C174.721 126.062 174.999 125.379 175.466 124.833C175.933 124.286 176.564 123.905 177.265 123.747C177.966 123.589 178.7 123.661 179.357 123.954" stroke="#B2B2B2" stroke-width="0.8" stroke-linecap="round" stroke-linejoin="round"/>
<path d="M181.333 124.333L178 127.67L177 126.67" stroke="#B2B2B2" stroke-width="0.8" stroke-linecap="round" stroke-linejoin="round"/>
<rect x="186" y="126" width="49" height="3" rx="1.5" fill="#B2B2B2"/>
</g>
<g opacity="0.5">
<path d="M181.333 137.694V138C181.333 138.719 181.1 139.419 180.67 139.994C180.239 140.57 179.634 140.991 178.945 141.195C178.256 141.399 177.519 141.374 176.845 141.125C176.17 140.876 175.595 140.416 175.203 139.813C174.812 139.21 174.626 138.496 174.674 137.779C174.721 137.062 174.999 136.379 175.466 135.833C175.933 135.286 176.564 134.905 177.265 134.747C177.966 134.589 178.7 134.661 179.357 134.954" stroke="#B2B2B2" stroke-width="0.8" stroke-linecap="round" stroke-linejoin="round"/>
<path d="M181.333 135.333L178 138.67L177 137.67" stroke="#B2B2B2" stroke-width="0.8" stroke-linecap="round" stroke-linejoin="round"/>
<rect x="186" y="137" width="49" height="3" rx="1.5" fill="#B2B2B2"/>
</g>
</g>
<defs>
<filter id="filter0_d" x="135" y="193" width="141.201" height="51.3088" filterUnits="userSpaceOnUse" color-interpolation-filters="sRGB">
<feFlood flood-opacity="0" result="BackgroundImageFix"/>
<feColorMatrix in="SourceAlpha" type="matrix" values="0 0 0 0 0 0 0 0 0 0 0 0 0 0 0 0 0 0 127 0"/>
<feOffset dy="1"/>
<feGaussianBlur stdDeviation="6.5"/>
<feColorMatrix type="matrix" values="0 0 0 0 0 0 0 0 0 0 0 0 0 0 0 0 0 0 0.08 0"/>
<feBlend mode="normal" in2="BackgroundImageFix" result="effect1_dropShadow"/>
<feBlend mode="normal" in="SourceGraphic" in2="effect1_dropShadow" result="shape"/>
</filter>
<clipPath id="clip0">
<rect width="409" height="281" fill="white"/>
</clipPath>
</defs>
</svg>
