<svg width="409" height="281" viewBox="0 0 409 281" fill="none" xmlns="http://www.w3.org/2000/svg">
<g clip-path="url(#clip0)">
<path d="M403.955 279.448H4.00749C1.603 279.448 0 277.45 0 275.451V38H407.963V275.451C407.963 277.849 406.36 279.448 403.955 279.448Z" fill="white"/>
<path d="M408.08 38.4703V4.49163C408.08 2.09314 406.077 0.494141 404.073 0.494141H4.12517C1.72067 0.494141 0.117676 2.49289 0.117676 4.49163V38.4703H408.08Z" fill="#E8E8E8"/>
<path d="M34.1813 25.6783C37.2799 25.6783 39.7918 23.1727 39.7918 20.0818C39.7918 16.991 37.2799 14.4854 34.1813 14.4854C31.0827 14.4854 28.5708 16.991 28.5708 20.0818C28.5708 23.1727 31.0827 25.6783 34.1813 25.6783Z" fill="#F3746B"/>
<path d="M55.4025 25.6783C58.5011 25.6783 61.013 23.1727 61.013 20.0818C61.013 16.991 58.5011 14.4854 55.4025 14.4854C52.3039 14.4854 49.792 16.991 49.792 20.0818C49.792 23.1727 52.3039 25.6783 55.4025 25.6783Z" fill="#FFCC0D"/>
<path d="M76.6232 25.6783C79.7218 25.6783 82.2337 23.1727 82.2337 20.0818C82.2337 16.991 79.7218 14.4854 76.6232 14.4854C73.5246 14.4854 71.0127 16.991 71.0127 20.0818C71.0127 23.1727 73.5246 25.6783 76.6232 25.6783Z" fill="#34BA08"/>
<g filter="url(#filter0_d)">
<path d="M263.201 205H148V230.309H263.201V205Z" fill="#E2E2E2"/>
<path d="M148.5 205.5H262.701V229.809H148.5V205.5Z" stroke="#D3D3D3" stroke-opacity="0.96"/>
</g>
<path d="M196.112 211.8C197.083 211.8 197.925 211.96 198.64 212.28C199.365 212.6 199.92 213.059 200.304 213.656C200.688 214.253 200.88 214.963 200.88 215.784C200.88 216.595 200.688 217.304 200.304 217.912C199.92 218.509 199.365 218.968 198.64 219.288C197.925 219.608 197.083 219.768 196.112 219.768H193.584V223H191.504V211.8H196.112ZM196.016 218.008C196.923 218.008 197.611 217.816 198.08 217.432C198.549 217.048 198.784 216.499 198.784 215.784C198.784 215.069 198.549 214.52 198.08 214.136C197.611 213.752 196.923 213.56 196.016 213.56H193.584V218.008H196.016ZM205.951 214.36C207.21 214.36 208.17 214.664 208.831 215.272C209.503 215.869 209.839 216.776 209.839 217.992V223H207.951V221.96C207.706 222.333 207.354 222.621 206.895 222.824C206.447 223.016 205.903 223.112 205.263 223.112C204.623 223.112 204.063 223.005 203.583 222.792C203.103 222.568 202.73 222.264 202.463 221.88C202.207 221.485 202.079 221.043 202.079 220.552C202.079 219.784 202.362 219.171 202.927 218.712C203.503 218.243 204.404 218.008 205.631 218.008H207.839V217.88C207.839 217.283 207.658 216.824 207.295 216.504C206.943 216.184 206.415 216.024 205.711 216.024C205.231 216.024 204.756 216.099 204.287 216.248C203.828 216.397 203.439 216.605 203.119 216.872L202.335 215.416C202.783 215.075 203.322 214.813 203.951 214.632C204.58 214.451 205.247 214.36 205.951 214.36ZM205.679 221.656C206.18 221.656 206.623 221.544 207.007 221.32C207.402 221.085 207.679 220.755 207.839 220.328V219.336H205.775C204.623 219.336 204.047 219.715 204.047 220.472C204.047 220.835 204.191 221.123 204.479 221.336C204.767 221.549 205.167 221.656 205.679 221.656ZM220.25 214.456L216.25 223.688C215.876 224.616 215.423 225.267 214.89 225.64C214.356 226.024 213.711 226.216 212.954 226.216C212.527 226.216 212.106 226.147 211.69 226.008C211.274 225.869 210.932 225.677 210.665 225.432L211.465 223.96C211.658 224.141 211.882 224.285 212.138 224.392C212.404 224.499 212.671 224.552 212.938 224.552C213.29 224.552 213.578 224.461 213.802 224.28C214.036 224.099 214.25 223.795 214.442 223.368L214.586 223.032L210.857 214.456H212.938L215.626 220.776L218.33 214.456H220.25Z" fill="#CACACA"/>
<g clip-path="url(#clip1)">
<path d="M184.259 166.977L178.885 165.359L178.346 167.151L183.72 168.768L184.259 166.977Z" fill="#B2B2B2"/>
<path d="M177.095 164.82L171.721 163.203L171.182 164.994L176.555 166.612L177.095 164.82Z" fill="#B2B2B2"/>
<path d="M169.929 162.663L164.555 161.046L164.016 162.837L169.39 164.454L169.929 162.663Z" fill="#B2B2B2"/>
<path d="M198.379 152.474L185.991 129.416C185.641 128.757 185.041 128.265 184.325 128.051L184.317 128.048C183.607 127.835 182.84 127.915 182.19 128.272L157.734 141.411L147.912 138.456C146.428 138.009 144.863 138.85 144.417 140.334L136.869 165.412C136.423 166.895 137.264 168.46 138.748 168.907L152.017 172.901L153.885 176.38C154.235 177.04 154.835 177.531 155.55 177.746L155.558 177.748C156.268 177.962 157.035 177.881 157.686 177.524L161.169 175.655L181.738 181.845C183.222 182.292 184.787 181.451 185.234 179.967L191.424 159.398L197.229 156.278C197.888 155.933 198.381 155.337 198.597 154.625C198.815 153.908 198.737 153.133 198.379 152.474ZM189.652 140.185L176.73 147.128L169.124 144.839L186.993 135.238L189.652 140.185ZM183.078 129.917C183.524 129.67 184.085 129.832 184.331 130.278C184.335 130.284 184.338 130.291 184.342 130.297L186.108 133.59L166.591 144.077L160.266 142.174L183.078 129.917ZM156.798 175.88C156.582 176.001 156.327 176.03 156.09 175.96C155.85 175.887 155.649 175.721 155.533 175.499L154.551 173.663L158.636 174.892L156.798 175.88ZM183.442 179.428C183.293 179.922 182.772 180.203 182.277 180.054L139.287 167.116C138.792 166.967 138.512 166.445 138.661 165.951L142.434 153.412L187.216 166.889L183.442 179.428ZM187.755 165.098L142.973 151.62L144.591 146.247L189.372 159.724L187.755 165.098ZM189.911 157.932L145.13 144.455L146.208 140.873C146.357 140.378 146.878 140.098 147.373 140.247L190.363 153.185C190.858 153.334 191.138 153.855 190.989 154.35L189.911 157.932ZM196.349 154.628L192.186 156.865L192.781 154.889C193.227 153.405 192.386 151.84 190.902 151.393L179.259 147.889L190.533 141.831L196.727 153.358C196.849 153.579 196.876 153.839 196.803 154.08C196.732 154.316 196.568 154.514 196.349 154.628Z" fill="#B2B2B2"/>
<path d="M187.755 165.098L142.973 151.62L144.591 146.247L189.372 159.724L187.755 165.098Z" fill="#B2B2B2"/>
<path d="M145.722 167.125C145.887 167.051 146.046 166.966 146.198 166.869C146.968 168.605 148.924 169.48 150.73 168.895C151.898 168.511 152.809 167.585 153.173 166.411C153.769 164.433 152.648 162.346 150.669 161.75C150.492 161.694 150.31 161.656 150.125 161.636L150.1 161.635C150.091 161.632 150.082 161.629 150.074 161.627C149.213 161.516 148.34 161.713 147.609 162.182C146.765 160.296 144.552 159.451 142.666 160.295C140.78 161.139 139.935 163.352 140.779 165.238C141.623 167.124 143.836 167.969 145.722 167.125ZM149.898 163.492C149.977 163.501 150.055 163.517 150.13 163.542C151.119 163.839 151.68 164.883 151.382 165.872C151.267 166.251 151.033 166.582 150.714 166.817C150.669 166.851 150.63 166.889 150.579 166.924C150.571 166.929 150.561 166.931 150.551 166.936C150.1 167.207 149.556 167.276 149.052 167.124C148.068 166.81 147.525 165.757 147.84 164.773C148.119 163.899 148.99 163.357 149.898 163.492ZM144.756 161.924C145.746 162.222 146.306 163.265 146.008 164.255C145.711 165.244 144.667 165.805 143.678 165.507C142.689 165.209 142.128 164.166 142.426 163.177C142.724 162.187 143.767 161.627 144.756 161.924Z" fill="#B2B2B2"/>
</g>
<g clip-path="url(#clip2)">
<path d="M254.299 114.264C254.333 114.266 254.368 114.269 254.404 114.269C254.464 114.269 254.524 114.264 254.583 114.255C256.158 114.288 257.419 115.572 257.42 117.148C257.42 117.863 258.001 118.444 258.717 118.444C259.432 118.444 260.013 117.863 260.013 117.148C260.01 114.571 258.216 112.342 255.7 111.788V110.542C255.7 109.826 255.119 109.246 254.404 109.246C253.688 109.246 253.107 109.826 253.107 110.542V111.847C250.447 112.558 248.725 115.132 249.084 117.863C249.443 120.594 251.771 122.635 254.525 122.635C256.124 122.635 257.42 123.932 257.42 125.531C257.42 127.13 256.124 128.427 254.525 128.427C252.926 128.427 251.63 127.13 251.63 125.531C251.63 124.815 251.049 124.235 250.334 124.235C249.618 124.235 249.037 124.815 249.037 125.531C249.041 128.015 250.709 130.187 253.107 130.832V132.252C253.107 132.968 253.688 133.548 254.404 133.548C255.119 133.548 255.7 132.968 255.7 132.252V130.892C258.437 130.292 260.283 127.727 259.981 124.941C259.68 122.155 257.327 120.044 254.525 120.044C252.97 120.045 251.692 118.817 251.631 117.263C251.57 115.71 252.748 114.385 254.299 114.264V114.264Z" fill="#B2B2B2"/>
<path d="M254.599 102.909C246.626 102.909 239.821 108.112 237.272 115.079H205.102C204.39 115.079 203.811 115.721 203.806 116.433L203.5 161.901H194.33C193.615 161.901 193 162.419 193 163.137V168.906C193.016 174.338 197.295 178.801 202.721 179.046V179.075H242.739V179.037C243.063 179.049 243.196 179.075 243.401 179.075H243.429C249.045 179.066 253.594 174.511 253.594 168.894V139.721C253.918 139.739 254.261 139.749 254.596 139.749C264.743 139.749 273 131.476 273 121.328C273 111.181 264.747 102.909 254.599 102.909ZM203.214 176.483H203.206C199.013 176.477 195.611 173.087 195.592 168.893V164.493H233.18V168.875C233.182 171.58 234.262 174.173 236.181 176.079C236.317 176.215 236.486 176.321 236.628 176.483H203.214ZM251.002 168.893C251.002 173.079 247.613 176.474 243.428 176.483H243.403C239.201 176.475 235.793 173.078 235.772 168.876V163.137C235.783 162.805 235.656 162.484 235.421 162.25C235.187 162.016 234.866 161.89 234.535 161.901H206.092L206.39 117.671H236.552C236.323 118.858 236.204 120.063 236.197 121.271C236.195 123.826 236.728 126.352 237.762 128.688H225.52C224.803 128.688 224.223 129.268 224.223 129.984C224.223 130.7 224.803 131.28 225.52 131.28H239.168C241.842 135.485 246.116 138.417 251.002 139.397V168.893ZM254.599 137.157C245.868 137.157 238.79 130.079 238.79 121.347C238.79 112.616 245.868 105.538 254.6 105.538C263.331 105.538 270.409 112.616 270.409 121.347C270.4 130.075 263.327 137.148 254.599 137.157Z" fill="#B2B2B2"/>
<path d="M217.2 137.313C214.912 137.313 213.051 139.115 213.051 141.33C213.051 143.545 214.912 145.347 217.2 145.347C219.488 145.347 221.349 143.545 221.349 141.33C221.349 139.115 219.488 137.313 217.2 137.313V137.313ZM217.2 142.755C216.341 142.755 215.644 142.116 215.644 141.33C215.644 140.544 216.342 139.906 217.2 139.906C218.058 139.906 218.757 140.545 218.757 141.33C218.757 142.116 218.058 142.755 217.2 142.755Z" fill="#B2B2B2"/>
<path d="M224.223 141.324C224.223 142.04 224.803 142.621 225.519 142.621H242.799C243.515 142.621 244.095 142.04 244.095 141.324C244.095 140.609 243.515 140.028 242.799 140.028H225.519C224.803 140.028 224.223 140.609 224.223 141.324Z" fill="#B2B2B2"/>
<path d="M217.2 126.047C214.912 126.047 213.051 127.849 213.051 130.064C213.051 132.279 214.912 134.081 217.2 134.081C219.488 134.081 221.349 132.279 221.349 130.064C221.349 127.849 219.488 126.047 217.2 126.047ZM217.2 131.489C216.341 131.489 215.644 130.85 215.644 130.064C215.644 129.279 216.342 128.639 217.2 128.639C218.058 128.639 218.757 129.278 218.757 130.064C218.757 130.85 218.058 131.49 217.2 131.49V131.489Z" fill="#B2B2B2"/>
<path d="M217.2 148.579C214.912 148.579 213.051 150.381 213.051 152.596C213.051 154.811 214.912 156.613 217.2 156.613C219.488 156.613 221.349 154.811 221.349 152.596C221.349 150.381 219.488 148.579 217.2 148.579ZM217.2 154.021C216.341 154.021 215.644 153.382 215.644 152.596C215.644 151.811 216.342 151.171 217.2 151.171C218.058 151.171 218.757 151.811 218.757 152.596C218.757 153.381 218.058 154.021 217.2 154.021V154.021Z" fill="#B2B2B2"/>
<path d="M242.799 151.37H225.519C224.803 151.37 224.223 151.95 224.223 152.666C224.223 153.382 224.803 153.962 225.519 153.962H242.799C243.515 153.962 244.095 153.382 244.095 152.666C244.095 151.95 243.515 151.37 242.799 151.37Z" fill="#B2B2B2"/>
</g>
</g>
<defs>
<filter id="filter0_d" x="135" y="193" width="141.201" height="51.3088" filterUnits="userSpaceOnUse" color-interpolation-filters="sRGB">
<feFlood flood-opacity="0" result="BackgroundImageFix"/>
<feColorMatrix in="SourceAlpha" type="matrix" values="0 0 0 0 0 0 0 0 0 0 0 0 0 0 0 0 0 0 127 0"/>
<feOffset dy="1"/>
<feGaussianBlur stdDeviation="6.5"/>
<feColorMatrix type="matrix" values="0 0 0 0 0 0 0 0 0 0 0 0 0 0 0 0 0 0 0.08 0"/>
<feBlend mode="normal" in2="BackgroundImageFix" result="effect1_dropShadow"/>
<feBlend mode="normal" in="SourceGraphic" in2="effect1_dropShadow" result="shape"/>
</filter>
<clipPath id="clip0">
<rect width="409" height="281" fill="white"/>
</clipPath>
<clipPath id="clip1">
<rect width="56" height="56" fill="white" transform="translate(151.138 118) rotate(16.7492)"/>
</clipPath>
<clipPath id="clip2">
<rect width="80" height="80" fill="white" transform="translate(193 101)"/>
</clipPath>
</defs>
</svg>
