<svg width="409" height="281" viewBox="0 0 409 281" fill="none" xmlns="http://www.w3.org/2000/svg">
<g clip-path="url(#clip0)">
<path d="M404.073 279.919H4.12517C1.72067 279.919 0.117676 277.92 0.117676 275.922V38.4707H408.08V275.922C408.08 278.32 406.477 279.919 404.073 279.919Z" fill="white"/>
<path d="M408.08 38.4703V4.49163C408.08 2.09314 406.077 0.494141 404.073 0.494141H4.12517C1.72067 0.494141 0.117676 2.49289 0.117676 4.49163V38.4703H408.08Z" fill="#E8E8E8"/>
<path d="M34.1813 25.6783C37.2799 25.6783 39.7918 23.1727 39.7918 20.0818C39.7918 16.991 37.2799 14.4854 34.1813 14.4854C31.0827 14.4854 28.5708 16.991 28.5708 20.0818C28.5708 23.1727 31.0827 25.6783 34.1813 25.6783Z" fill="#F3746B"/>
<path d="M55.4025 25.6783C58.5011 25.6783 61.013 23.1727 61.013 20.0818C61.013 16.991 58.5011 14.4854 55.4025 14.4854C52.3039 14.4854 49.792 16.991 49.792 20.0818C49.792 23.1727 52.3039 25.6783 55.4025 25.6783Z" fill="#FFCC0D"/>
<path d="M76.6232 25.6783C79.7218 25.6783 82.2337 23.1727 82.2337 20.0818C82.2337 16.991 79.7218 14.4854 76.6232 14.4854C73.5246 14.4854 71.0127 16.991 71.0127 20.0818C71.0127 23.1727 73.5246 25.6783 76.6232 25.6783Z" fill="#34BA08"/>
<g filter="url(#filter0_d)">
<path d="M263.201 205H148V230.309H263.201V205Z" fill="#E2E2E2"/>
<path d="M148.5 205.5H262.701V229.809H148.5V205.5Z" stroke="#D3D3D3" stroke-opacity="0.96"/>
</g>
<path d="M144.358 77.8428H29.1572V91.3408H144.358V77.8428Z" fill="#ABABAB"/>
<path d="M367.983 120.024H29.1572V126.773H367.983V120.024Z" fill="#C6C6C6"/>
<path d="M344.265 135.209H29.1572V141.958H344.265V135.209Z" fill="#C6C6C6"/>
<path d="M223.982 152.082H29.1572V158.831H223.982V152.082Z" fill="#C6C6C6"/>
<path d="M174.852 168.954H29.1572V175.703H174.852V168.954Z" fill="#C6C6C6"/>
<path d="M193.112 211.8H188.504V223H190.584V219.768H193.112C196.056 219.768 197.88 218.248 197.88 215.784C197.88 213.304 196.056 211.8 193.112 211.8ZM193.016 218.008H190.584V213.56H193.016C194.84 213.56 195.784 214.376 195.784 215.784C195.784 217.192 194.84 218.008 193.016 218.008ZM203.574 223.112C206.23 223.112 208.134 221.288 208.134 218.728C208.134 216.168 206.23 214.36 203.574 214.36C200.95 214.36 199.03 216.168 199.03 218.728C199.03 221.288 200.95 223.112 203.574 223.112ZM203.574 221.4C202.134 221.4 201.046 220.36 201.046 218.728C201.046 217.096 202.134 216.056 203.574 216.056C205.03 216.056 206.118 217.096 206.118 218.728C206.118 220.36 205.03 221.4 203.574 221.4ZM212.686 223.112C215.086 223.112 216.558 222.072 216.558 220.472C216.558 217.128 211.278 218.664 211.278 216.936C211.278 216.376 211.854 215.976 213.07 215.976C213.886 215.976 214.702 216.136 215.518 216.616L216.286 215.096C215.518 214.632 214.222 214.36 213.086 214.36C210.782 214.36 209.326 215.416 209.326 217.032C209.326 220.44 214.606 218.904 214.606 220.536C214.606 221.128 214.078 221.48 212.814 221.48C211.742 221.48 210.59 221.128 209.838 220.632L209.07 222.152C209.838 222.696 211.262 223.112 212.686 223.112ZM222.857 221.112C222.553 221.352 222.153 221.464 221.737 221.464C220.969 221.464 220.553 221.016 220.553 220.184V216.12H222.841V214.52H220.553V212.568H218.553V214.52H217.145V216.12H218.553V220.232C218.553 222.12 219.625 223.112 221.497 223.112C222.217 223.112 222.937 222.92 223.417 222.536L222.857 221.112Z" fill="#CACACA"/>
</g>
<defs>
<filter id="filter0_d" x="135" y="193" width="141.201" height="51.3088" filterUnits="userSpaceOnUse" color-interpolation-filters="sRGB">
<feFlood flood-opacity="0" result="BackgroundImageFix"/>
<feColorMatrix in="SourceAlpha" type="matrix" values="0 0 0 0 0 0 0 0 0 0 0 0 0 0 0 0 0 0 127 0"/>
<feOffset dy="1"/>
<feGaussianBlur stdDeviation="6.5"/>
<feColorMatrix type="matrix" values="0 0 0 0 0 0 0 0 0 0 0 0 0 0 0 0 0 0 0.08 0"/>
<feBlend mode="normal" in2="BackgroundImageFix" result="effect1_dropShadow"/>
<feBlend mode="normal" in="SourceGraphic" in2="effect1_dropShadow" result="shape"/>
</filter>
<clipPath id="clip0">
<rect width="409" height="281" fill="white"/>
</clipPath>
</defs>
</svg>
