<svg width="136" height="82" viewBox="0 0 136 82" fill="none" xmlns="http://www.w3.org/2000/svg">
<path d="M124.559 37.3973C127.528 37.8093 130.003 39.0453 131.983 41.1053C134.02 43.1653 135.039 45.755 135.039 48.8744C135.039 51.8761 134.137 54.4363 132.332 56.5552C130.527 58.674 128.082 60.2926 124.996 61.4109C121.968 62.4703 118.649 63 115.039 63C108.693 63 103.918 61.8817 100.716 59.6452C97.5721 57.4086 96 54.6129 96 51.2581C96 49.3158 96.4658 47.8149 97.3974 46.7555C98.329 45.6372 99.5808 45.0781 101.153 45.0781C102.492 45.0781 103.482 45.4312 104.122 46.1375C104.821 46.7849 105.403 47.9327 105.869 49.5806C106.277 51.1698 107.121 52.3763 108.402 53.2003C109.683 54.0243 111.662 54.4363 114.341 54.4363C116.902 54.4363 118.999 53.9655 120.629 53.0238C122.317 52.0232 123.162 50.5224 123.162 48.5212C123.162 46.4612 122.376 44.9604 120.803 44.0187C119.231 43.0181 116.786 42.459 113.467 42.3413C112.245 42.2824 111.313 41.8704 110.672 41.1053C110.09 40.2813 109.799 39.3101 109.799 38.1919C109.799 36.7793 110.032 35.7787 110.498 35.1902C111.022 34.5427 111.895 34.1013 113.118 33.8659C116.961 33.2773 119.726 32.159 121.415 30.511C123.162 28.8042 124.035 26.7736 124.035 24.4194C124.035 21.1822 121.822 19.5637 117.397 19.5637C112.507 19.5637 109.624 21.5059 108.751 25.3905C108.344 26.9796 107.732 28.1273 106.917 28.8336C106.16 29.481 105.083 29.8048 103.686 29.8048C102.114 29.8048 100.891 29.3633 100.017 28.4805C99.2023 27.5388 98.7948 26.3028 98.7948 24.7725C98.7948 22.4182 99.6099 20.1817 101.24 18.0628C102.87 15.944 105.17 14.2371 108.14 12.9423C111.167 11.6474 114.69 11 118.707 11C124.297 11 128.576 12.0889 131.546 14.2666C134.515 16.4443 136 19.6814 136 23.9779C136 26.8031 134.923 29.4516 132.769 31.9236C130.672 34.3367 127.936 36.1613 124.559 37.3973Z" fill="#F3F3F3"/>
<path d="M15.042 60.368C10.9633 60.368 7.69733 59.6013 5.244 58.068C2.79067 56.504 1.564 54.1273 1.564 50.938C1.564 49.2513 1.85533 47.9633 2.438 47.074C3.02067 46.1847 3.87933 45.74 5.014 45.74C5.842 45.74 6.51667 45.9547 7.038 46.384C7.55933 46.8133 7.82 47.3653 7.82 48.04C7.82 48.6533 7.774 49.19 7.682 49.65C7.682 49.7727 7.65133 49.9873 7.59 50.294C7.55933 50.6007 7.544 50.9227 7.544 51.26C7.544 52.64 8.234 53.6673 9.614 54.342C11.0247 55.0167 12.9873 55.354 15.502 55.354C18.1087 55.354 20.148 54.894 21.62 53.974C23.092 53.0233 23.828 51.7047 23.828 50.018C23.828 48.9753 23.4907 48.086 22.816 47.35C22.1413 46.5833 21.298 45.9547 20.286 45.464C19.274 44.9427 17.848 44.314 16.008 43.578C13.6467 42.658 11.7147 41.784 10.212 40.956C8.74 40.128 7.46733 39.0087 6.394 37.598C5.35133 36.1567 4.83 34.378 4.83 32.262C4.83 30.054 5.41267 28.0913 6.578 26.374C7.774 24.6567 9.476 23.3227 11.684 22.372C13.9227 21.4213 16.5447 20.946 19.55 20.946C21.7887 20.946 23.8433 21.2833 25.714 21.958C27.5847 22.602 29.072 23.5987 30.176 24.948C31.3107 26.2973 31.878 27.9533 31.878 29.916C31.878 31.848 31.5867 33.3047 31.004 34.286C30.4213 35.2673 29.5627 35.758 28.428 35.758C27.6307 35.758 26.956 35.5127 26.404 35.022C25.8827 34.5313 25.622 33.9487 25.622 33.274C25.622 32.6913 25.668 32.1547 25.76 31.664C25.852 30.744 25.898 30.1613 25.898 29.916C25.898 28.628 25.2693 27.6467 24.012 26.972C22.7547 26.2973 21.1907 25.96 19.32 25.96C16.6827 25.96 14.6587 26.4507 13.248 27.432C11.868 28.3827 11.178 29.732 11.178 31.48C11.178 32.6453 11.5307 33.642 12.236 34.47C12.972 35.298 13.8767 35.988 14.95 36.54C16.0233 37.092 17.526 37.7513 19.458 38.518C21.7887 39.4687 23.6593 40.3273 25.07 41.094C26.4807 41.8607 27.6767 42.9033 28.658 44.222C29.67 45.5407 30.176 47.166 30.176 49.098C30.176 52.7167 28.796 55.5073 26.036 57.47C23.3067 59.402 19.642 60.368 15.042 60.368ZM54.1693 49.742C54.568 49.742 54.8746 49.926 55.0893 50.294C55.3346 50.662 55.4573 51.168 55.4573 51.812C55.4573 53.0387 55.166 53.9893 54.5833 54.664C53.2646 56.2893 51.8233 57.6233 50.2593 58.666C48.6953 59.7087 46.9013 60.23 44.8773 60.23C38.6213 60.23 35.4933 55.8293 35.4933 47.028C35.4933 45.6787 35.5393 44.314 35.6313 42.934H33.8373C32.9173 42.934 32.2886 42.7653 31.9513 42.428C31.6446 42.0907 31.4913 41.554 31.4913 40.818C31.4913 39.1007 32.1813 38.242 33.5613 38.242H36.1833C36.7046 34.8687 37.502 31.7867 38.5753 28.996C39.6486 26.2053 40.9366 23.982 42.4393 22.326C43.9726 20.67 45.6133 19.842 47.3613 19.842C48.6493 19.842 49.6613 20.4093 50.3973 21.544C51.1333 22.6787 51.5013 24.1047 51.5013 25.822C51.5013 30.5753 49.508 34.7153 45.5213 38.242H50.6733C51.164 38.242 51.5166 38.3493 51.7313 38.564C51.946 38.7787 52.0533 39.1773 52.0533 39.76C52.0533 41.876 50.3206 42.934 46.8553 42.934H41.2433C41.182 44.4673 41.1513 45.6633 41.1513 46.522C41.1513 49.7113 41.5193 51.95 42.2553 53.238C43.022 54.526 44.218 55.17 45.8433 55.17C47.162 55.17 48.3273 54.7713 49.3393 53.974C50.3513 53.1767 51.5473 51.9807 52.9273 50.386C53.2953 49.9567 53.7093 49.742 54.1693 49.742ZM46.1193 24.258C45.6593 24.258 45.138 24.8407 44.5553 26.006C44.0033 27.1407 43.4666 28.7353 42.9453 30.79C42.4546 32.814 42.0406 35.068 41.7033 37.552C43.5126 35.988 44.862 34.24 45.7513 32.308C46.6713 30.3453 47.1313 28.5667 47.1313 26.972C47.1313 25.1627 46.794 24.258 46.1193 24.258ZM72.2279 49.742C72.6266 49.742 72.9332 49.926 73.1479 50.294C73.3932 50.662 73.5159 51.168 73.5159 51.812C73.5159 53.0387 73.2246 53.9893 72.6419 54.664C71.5072 56.044 69.8972 57.3167 67.8119 58.482C65.7572 59.6473 63.5492 60.23 61.1879 60.23C57.9679 60.23 55.4686 59.356 53.6899 57.608C51.9112 55.86 51.0219 53.468 51.0219 50.432C51.0219 48.316 51.4666 46.3533 52.3559 44.544C53.2452 42.704 54.4719 41.2473 56.0359 40.174C57.6306 39.1007 59.4246 38.564 61.4179 38.564C63.1966 38.564 64.6226 39.1007 65.6959 40.174C66.7692 41.2167 67.3059 42.6427 67.3059 44.452C67.3059 46.568 66.5392 48.3927 65.0059 49.926C63.5032 51.4287 60.9426 52.6247 57.3239 53.514C58.0906 54.9247 59.5472 55.63 61.6939 55.63C63.0739 55.63 64.6379 55.1547 66.3859 54.204C68.1646 53.2227 69.6979 51.95 70.9859 50.386C71.3539 49.9567 71.7679 49.742 72.2279 49.742ZM60.6359 43.072C59.5012 43.072 58.5352 43.7313 57.7379 45.05C56.9712 46.3687 56.5879 47.9633 56.5879 49.834V49.926C58.3972 49.4967 59.8232 48.8527 60.8659 47.994C61.9086 47.1353 62.4299 46.1387 62.4299 45.004C62.4299 44.4213 62.2612 43.9613 61.9239 43.624C61.6172 43.256 61.1879 43.072 60.6359 43.072ZM88.8849 45.97C88.8849 48.3927 88.3176 50.6927 87.1829 52.87C86.0789 55.0167 84.5916 56.7647 82.7209 58.114C80.8809 59.4633 78.9029 60.1687 76.7869 60.23C76.3883 66.1487 75.4836 71.086 74.0729 75.042C72.6623 79.0287 70.5923 81.022 67.8629 81.022C66.2069 81.022 64.9803 80.424 64.1829 79.228C63.3856 78.032 62.9869 76.376 62.9869 74.26C62.9869 71.2547 63.6769 67.7433 65.0569 63.726C66.4369 59.7393 68.5683 55.3387 71.4509 50.524C71.4509 46.0467 71.4203 42.934 71.3589 41.186C71.3283 40.2967 71.6809 39.5913 72.4169 39.07C73.1529 38.5487 74.0729 38.288 75.1769 38.288C75.8209 38.288 76.2809 38.426 76.5569 38.702C76.8636 38.9473 77.0323 39.4533 77.0629 40.22C77.0629 40.9867 77.0783 41.554 77.1089 41.922C78.0903 40.6953 79.0563 39.8213 80.0069 39.3C80.9576 38.748 81.9696 38.472 83.0429 38.472C84.7603 38.472 86.1556 39.162 87.2289 40.542C88.3329 41.922 88.8849 43.7313 88.8849 45.97ZM77.0169 55.814C78.1209 55.5687 79.1329 54.9707 80.0529 54.02C81.0036 53.0387 81.7549 51.8427 82.3069 50.432C82.8589 48.9907 83.1349 47.488 83.1349 45.924C83.1349 45.004 82.9509 44.314 82.5829 43.854C82.2149 43.3633 81.7243 43.118 81.1109 43.118C80.0069 43.118 78.6729 44.2833 77.1089 46.614C77.0783 47.9633 77.0629 49.9413 77.0629 52.548C77.0629 53.9587 77.0476 55.0473 77.0169 55.814ZM68.2309 76.514C69.0589 76.514 69.7489 74.7047 70.3009 71.086C70.8529 67.498 71.2056 63.0207 71.3589 57.654C70.0403 60.7207 68.9976 63.6493 68.2309 66.44C67.4643 69.2307 67.0809 71.5767 67.0809 73.478C67.0809 74.4593 67.2036 75.2107 67.4489 75.732C67.6636 76.2533 67.9243 76.514 68.2309 76.514Z" fill="#F0F0F0"/>
</svg>
