<svg width="96" height="96" viewBox="0 0 96 96" fill="none" xmlns="http://www.w3.org/2000/svg">
<path d="M20 68H16C13.8783 68 11.8434 67.1571 10.3431 65.6569C8.84285 64.1566 8 62.1217 8 60V20C8 17.8783 8.84285 15.8434 10.3431 14.3431C11.8434 12.8429 13.8783 12 16 12H80C82.1217 12 84.1566 12.8429 85.6569 14.3431C87.1571 15.8434 88 17.8783 88 20V60C88 62.1217 87.1571 64.1566 85.6569 65.6569C84.1566 67.1571 82.1217 68 80 68H76" stroke="#9013F3" stroke-width="5" stroke-linecap="round" stroke-linejoin="round"/>
<path d="M48 60L68 84H28L48 60Z" stroke="#9013F3" stroke-width="5" stroke-linecap="round" stroke-linejoin="round"/>
</svg>
