<svg width="25" height="25" viewBox="0 0 25 25" fill="none" xmlns="http://www.w3.org/2000/svg">
<path d="M18.0199 3.72144C17.2242 3.72144 16.4612 4.03751 15.8986 4.60012C15.336 5.16272 15.0199 5.92579 15.0199 6.72144V18.7214C15.0199 19.5171 15.336 20.2801 15.8986 20.8428C16.4612 21.4054 17.2242 21.7214 18.0199 21.7214C18.8155 21.7214 19.5786 21.4054 20.1412 20.8428C20.7038 20.2801 21.0199 19.5171 21.0199 18.7214C21.0199 17.9258 20.7038 17.1627 20.1412 16.6001C19.5786 16.0375 18.8155 15.7214 18.0199 15.7214H6.0199C5.22425 15.7214 4.46119 16.0375 3.89858 16.6001C3.33597 17.1627 3.0199 17.9258 3.0199 18.7214C3.0199 19.5171 3.33597 20.2801 3.89858 20.8428C4.46119 21.4054 5.22425 21.7214 6.0199 21.7214C6.81555 21.7214 7.57861 21.4054 8.14122 20.8428C8.70383 20.2801 9.0199 19.5171 9.0199 18.7214V6.72144C9.0199 5.92579 8.70383 5.16272 8.14122 4.60012C7.57861 4.03751 6.81555 3.72144 6.0199 3.72144C5.22425 3.72144 4.46119 4.03751 3.89858 4.60012C3.33597 5.16272 3.0199 5.92579 3.0199 6.72144C3.0199 7.51709 3.33597 8.28015 3.89858 8.84276C4.46119 9.40537 5.22425 9.72144 6.0199 9.72144H18.0199C18.8155 9.72144 19.5786 9.40537 20.1412 8.84276C20.7038 8.28015 21.0199 7.51709 21.0199 6.72144C21.0199 5.92579 20.7038 5.16272 20.1412 4.60012C19.5786 4.03751 18.8155 3.72144 18.0199 3.72144Z" stroke="white" stroke-width="2" stroke-linecap="round" stroke-linejoin="round"/>
</svg>
