<svg width="177" height="97" viewBox="0 0 177 97" fill="none" xmlns="http://www.w3.org/2000/svg">
<path d="M80.8618 84.1209V76.1094C80.8618 71.8599 79.1736 67.7843 76.1687 64.7794C73.1638 61.7745 69.0883 60.0864 64.8388 60.0864H32.7927C28.5431 60.0864 24.4676 61.7745 21.4627 64.7794C18.4578 67.7843 16.7697 71.8599 16.7697 76.1094V84.1209" stroke="#9013F3" stroke-width="5" stroke-linecap="round" stroke-linejoin="round"/>
<path d="M48.8157 44.0633C57.665 44.0633 64.8387 36.8896 64.8387 28.0403C64.8387 19.191 57.665 12.0173 48.8157 12.0173C39.9664 12.0173 32.7927 19.191 32.7927 28.0403C32.7927 36.8896 39.9664 44.0633 48.8157 44.0633Z" stroke="#9013F3" stroke-width="5" stroke-linecap="round" stroke-linejoin="round"/>
<path d="M160.977 84.1209V76.1094C160.977 71.8599 159.289 67.7843 156.284 64.7794C153.279 61.7745 149.204 60.0864 144.954 60.0864H112.908C108.658 60.0864 104.583 61.7745 101.578 64.7794C98.573 67.7843 96.8849 71.8599 96.8849 76.1094V84.1209" stroke="#9013F3" stroke-width="5" stroke-linecap="round" stroke-linejoin="round"/>
<path d="M128.931 44.0633C137.78 44.0633 144.954 36.8896 144.954 28.0403C144.954 19.191 137.78 12.0173 128.931 12.0173C120.082 12.0173 112.908 19.191 112.908 28.0403C112.908 36.8896 120.082 44.0633 128.931 44.0633Z" stroke="#9013F3" stroke-width="5" stroke-linecap="round" stroke-linejoin="round"/>
</svg>
