<svg width="96" height="96" viewBox="0 0 96 96" fill="none" xmlns="http://www.w3.org/2000/svg">
<path d="M72 12C68.8174 12 65.7652 13.2643 63.5147 15.5147C61.2643 17.7652 60 20.8174 60 24V72C60 75.1826 61.2643 78.2348 63.5147 80.4853C65.7652 82.7357 68.8174 84 72 84C75.1826 84 78.2348 82.7357 80.4853 80.4853C82.7357 78.2348 84 75.1826 84 72C84 68.8174 82.7357 65.7652 80.4853 63.5147C78.2348 61.2643 75.1826 60 72 60H24C20.8174 60 17.7652 61.2643 15.5147 63.5147C13.2643 65.7652 12 68.8174 12 72C12 75.1826 13.2643 78.2348 15.5147 80.4853C17.7652 82.7357 20.8174 84 24 84C27.1826 84 30.2348 82.7357 32.4853 80.4853C34.7357 78.2348 36 75.1826 36 72V24C36 20.8174 34.7357 17.7652 32.4853 15.5147C30.2348 13.2643 27.1826 12 24 12C20.8174 12 17.7652 13.2643 15.5147 15.5147C13.2643 17.7652 12 20.8174 12 24C12 27.1826 13.2643 30.2348 15.5147 32.4853C17.7652 34.7357 20.8174 36 24 36H72C75.1826 36 78.2348 34.7357 80.4853 32.4853C82.7357 30.2348 84 27.1826 84 24C84 20.8174 82.7357 17.7652 80.4853 15.5147C78.2348 13.2643 75.1826 12 72 12Z" stroke="#9013F3" stroke-width="5" stroke-linecap="round" stroke-linejoin="round"/>
</svg>
